<?xml version="1.0" encoding="utf-8"?>
<!-- Generator: Adobe Illustrator 25.1.0, SVG Export Plug-In . SVG Version: 6.00 Build 0)  -->
<svg version="1.1" id="Layer__1" xmlns="http://www.w3.org/2000/svg" xmlns:xlink="http://www.w3.org/1999/xlink" x="0px" y="0px"
	 viewBox="0 0 1160 772" style="enable-background:new 0 0 1160 772;" xml:space="preserve">
<style type="text/css">
	.st0{fill:#FFFFFF;}
	.st1{fill:#A9C29B;}
	.st2{fill:#C5D9BE;}
	.st3{fill:#D7E2D2;}
	.st4{fill:#2F8E6E;}
	.st5{clip-path:url(#SVGID_2_);}
	.st6{fill:#005B54;}
	.st7{clip-path:url(#SVGID_4_);}
	.st8{clip-path:url(#SVGID_6_);}
	.st9{clip-path:url(#SVGID_8_);}
	.st10{fill:#F9B56C;}
	.st11{fill:#F09C53;}
	.st12{clip-path:url(#SVGID_10_);}
	.st13{fill:#A15852;}
	.st14{fill:#FFD0BC;}
	.st15{fill:#DB9C7B;}
	.st16{fill:#FD8972;}
	.st17{fill:#FF6387;}
	.st18{fill:#FDC95A;}
	.st19{fill:#1E286D;}
	.st20{fill:#3D1303;}
	.st21{fill:#FFDF99;}
	.st22{fill:#404BA4;}
	.st23{fill:#4E150C;}
	.st24{fill:#FFFCFD;}
	.st25{fill:#FF6F54;}
	.st26{clip-path:url(#SVGID_14_);}
	.st27{fill:#1E2A6E;}
	.st28{clip-path:url(#SVGID_16_);}
	.st29{opacity:0.3;}
	.st30{fill:#8B41D1;}
	.st31{clip-path:url(#SVGID_18_);}
	.st32{fill:#0C6859;}
	.st33{clip-path:url(#SVGID_20_);}
	.st34{clip-path:url(#SVGID_22_);}
	.st35{fill:#0E0E3C;}
	.st36{fill-rule:evenodd;clip-rule:evenodd;fill:#F9B56C;}
	.st37{clip-path:url(#SVGID_24_);}
	.st38{fill-rule:evenodd;clip-rule:evenodd;fill:#F09C53;}
	.st39{clip-path:url(#SVGID_26_);}
	.st40{clip-path:url(#SVGID_28_);}
	.st41{fill:#AEC3A4;}
</style>
<g>
	<rect class="st0" width="1160" height="772"/>
</g>
<g>
	<g>
		<g>
			<g>
				<path class="st1" d="M777.34,684.17H584.78c-3.76,0-6.8-3.05-6.8-6.8v-0.01c0-3.76,3.05-6.8,6.8-6.8h192.55
					c3.76,0,6.8,3.05,6.8,6.8v0.01C784.14,681.13,781.1,684.17,777.34,684.17z"/>
			</g>
			<g>
				<path class="st2" d="M721.49,684.17H522.8c-3.24,0-6.26-2.63-6.71-5.84l-16.98-121c-0.28-2.01,1.15-3.66,3.18-3.66h198.84
					c3.24,0,6.26,2.63,6.71,5.84l16.96,120.85C725.09,682.46,723.6,684.17,721.49,684.17z"/>
			</g>
			<g>
				<path class="st1" d="M700.71,567.84c-0.45-3.21-3.47-5.84-6.71-5.84H499.77l-0.65-4.66c-0.28-2.01,1.15-3.66,3.18-3.66h198.84
					c3.24,0,6.26,2.63,6.71,5.84l16.96,120.85c0.29,2.09-1.19,3.8-3.31,3.8h-4.46L700.71,567.84z"/>
			</g>
		</g>
	</g>
	<g>
		<g>
			<path class="st2" d="M874.67,489.57H285.33c-6.6,0-12-5.4-12-12V95.83c0-6.6,5.4-12,12-12h589.33c6.6,0,12,5.4,12,12v381.74
				C886.67,484.17,881.27,489.57,874.67,489.57z"/>
		</g>
		<g>
			<path class="st1" d="M886.67,139.69H273.33V95.83c0-6.6,5.4-12,12-12h589.33c6.6,0,12,5.4,12,12V139.69z"/>
		</g>
		<g>
			<g>
				<path class="st1" d="M306.94,188.29h-9.2L321.86,168v7.9L306.94,188.29z M321.86,208.61l-24.12-20.33h9.2l14.92,12.1V208.61z"/>
			</g>
			<g>
				<path class="st1" d="M352.06,175.9V168l24.12,20.28h-9.2L352.06,175.9z M352.06,200.39l14.92-12.1h9.2l-24.12,20.33V200.39z"/>
			</g>
			<g>
				<path class="st1" d="M332.4,214.06h-5.55l13.88-51.5h5.55L332.4,214.06z"/>
			</g>
		</g>
		<g>
			<g>
				<path class="st3" d="M575.87,171.49H406.18c-2.27,0-4.13-1.86-4.13-4.13v-0.67c0-2.27,1.86-4.13,4.13-4.13h169.69
					c2.27,0,4.13,1.86,4.13,4.13v0.67C580,169.63,578.14,171.49,575.87,171.49z"/>
			</g>
			<g>
				<path class="st3" d="M575.53,214.06H406.51c-2.46,0-4.46-2.01-4.46-4.46l0,0c0-2.46,2.01-4.46,4.46-4.46h169.02
					c2.46,0,4.46,2.01,4.46,4.46l0,0C580,212.05,577.99,214.06,575.53,214.06z"/>
			</g>
			<g>
				<path class="st3" d="M575.53,199.99H406.51c-2.46,0-4.46-2.01-4.46-4.46l0,0c0-2.46,2.01-4.46,4.46-4.46h169.02
					c2.46,0,4.46,2.01,4.46,4.46l0,0C580,197.98,577.99,199.99,575.53,199.99z"/>
			</g>
			<g>
				<path class="st3" d="M575.53,185.74H406.51c-2.46,0-4.46-2.01-4.46-4.46l0,0c0-2.46,2.01-4.46,4.46-4.46h169.02
					c2.46,0,4.46,2.01,4.46,4.46l0,0C580,183.73,577.99,185.74,575.53,185.74z"/>
			</g>
		</g>
		<g>
			<g>
				<path class="st3" d="M362.43,316.33h-52.7c-6.6,0-12-5.4-12-12v-52.7c0-6.6,5.4-12,12-12h52.7c6.6,0,12,5.4,12,12v52.7
					C374.43,310.93,369.03,316.33,362.43,316.33z"/>
			</g>
			<g>
				<path class="st3" d="M466.75,316.33h-52.7c-6.6,0-12-5.4-12-12v-52.7c0-6.6,5.4-12,12-12h52.7c6.6,0,12,5.4,12,12v52.7
					C478.75,310.93,473.35,316.33,466.75,316.33z"/>
			</g>
			<g>
				<path class="st3" d="M362.43,407.93h-52.7c-6.6,0-12-5.4-12-12v-52.7c0-6.6,5.4-12,12-12h52.7c6.6,0,12,5.4,12,12v52.7
					C374.43,402.53,369.03,407.93,362.43,407.93z"/>
			</g>
			<g>
				<path class="st3" d="M466.75,407.93h-52.7c-6.6,0-12-5.4-12-12v-52.7c0-6.6,5.4-12,12-12h52.7c6.6,0,12,5.4,12,12v52.7
					C478.75,402.53,473.35,407.93,466.75,407.93z"/>
			</g>
			<g>
				<path class="st3" d="M568,316.33h-52.7c-6.6,0-12-5.4-12-12v-52.7c0-6.6,5.4-12,12-12H568c6.6,0,12,5.4,12,12v52.7
					C580,310.93,574.6,316.33,568,316.33z"/>
			</g>
			<g>
				<path class="st3" d="M568,407.93h-52.7c-6.6,0-12-5.4-12-12v-52.7c0-6.6,5.4-12,12-12H568c6.6,0,12,5.4,12,12v52.7
					C580,402.53,574.6,407.93,568,407.93z"/>
			</g>
		</g>
		<g>
			<path class="st1" d="M573.98,469.42h-10.81c-0.9,0-1.62-0.73-1.62-1.62c0-0.89,0.73-1.62,1.62-1.62h10.81
				c0.34,0,0.67-0.04,1-0.11c0.87-0.2,1.74,0.34,1.95,1.21c0.2,0.87-0.34,1.74-1.21,1.95C575.15,469.35,574.56,469.42,573.98,469.42
				z M552.36,469.42h-10.81c-0.9,0-1.62-0.73-1.62-1.62c0-0.89,0.73-1.62,1.62-1.62h10.81c0.9,0,1.62,0.73,1.62,1.62
				C553.98,468.69,553.26,469.42,552.36,469.42z M530.75,469.42h-10.81c-0.9,0-1.62-0.73-1.62-1.62c0-0.89,0.73-1.62,1.62-1.62
				h10.81c0.9,0,1.62,0.73,1.62,1.62C532.37,468.69,531.65,469.42,530.75,469.42z M509.14,469.42h-10.81c-0.9,0-1.62-0.73-1.62-1.62
				c0-0.89,0.73-1.62,1.62-1.62h10.81c0.9,0,1.62,0.73,1.62,1.62C510.76,468.69,510.03,469.42,509.14,469.42z M487.53,469.42h-10.81
				c-0.9,0-1.62-0.73-1.62-1.62c0-0.89,0.73-1.62,1.62-1.62h10.81c0.9,0,1.62,0.73,1.62,1.62
				C489.15,468.69,488.42,469.42,487.53,469.42z M465.92,469.42h-10.81c-0.9,0-1.62-0.73-1.62-1.62c0-0.89,0.73-1.62,1.62-1.62
				h10.81c0.9,0,1.62,0.73,1.62,1.62C467.54,468.69,466.81,469.42,465.92,469.42z M444.3,469.42H433.5c-0.9,0-1.62-0.73-1.62-1.62
				c0-0.89,0.73-1.62,1.62-1.62h10.81c0.9,0,1.62,0.73,1.62,1.62C445.92,468.69,445.2,469.42,444.3,469.42z M422.69,469.42h-10.81
				c-0.9,0-1.62-0.73-1.62-1.62c0-0.89,0.73-1.62,1.62-1.62h10.81c0.9,0,1.62,0.73,1.62,1.62
				C424.31,468.69,423.59,469.42,422.69,469.42z M401.08,469.42h-10.81c-0.9,0-1.62-0.73-1.62-1.62c0-0.89,0.73-1.62,1.62-1.62
				h10.81c0.9,0,1.62,0.73,1.62,1.62C402.7,468.69,401.97,469.42,401.08,469.42z M379.47,469.42h-10.81c-0.9,0-1.62-0.73-1.62-1.62
				c0-0.89,0.73-1.62,1.62-1.62h10.81c0.9,0,1.62,0.73,1.62,1.62C381.09,468.69,380.36,469.42,379.47,469.42z M357.86,469.42h-10.81
				c-0.9,0-1.62-0.73-1.62-1.62c0-0.89,0.73-1.62,1.62-1.62h10.81c0.9,0,1.62,0.73,1.62,1.62
				C359.48,468.69,358.75,469.42,357.86,469.42z M336.24,469.42h-10.81c-0.9,0-1.62-0.73-1.62-1.62c0-0.89,0.73-1.62,1.62-1.62
				h10.81c0.9,0,1.62,0.73,1.62,1.62C337.86,468.69,337.14,469.42,336.24,469.42z M314.63,469.42h-10.81c-0.9,0-1.62-0.73-1.62-1.62
				c0-0.89,0.73-1.62,1.62-1.62h10.81c0.9,0,1.62,0.73,1.62,1.62C316.25,468.69,315.53,469.42,314.63,469.42z M297.73,462.12
				c-0.9,0-1.62-0.73-1.62-1.62v-10.81c0-0.89,0.73-1.62,1.62-1.62c0.9,0,1.62,0.73,1.62,1.62v10.81
				C299.35,461.39,298.63,462.12,297.73,462.12z M580,460.67c-0.9,0-1.62-0.73-1.62-1.62v-10.81c0-0.89,0.73-1.62,1.62-1.62
				s1.62,0.73,1.62,1.62v10.81C581.62,459.95,580.9,460.67,580,460.67z M297.73,440.51c-0.9,0-1.62-0.73-1.62-1.62v-2.03
				c0-3.89,2.91-7.15,6.77-7.6c0.88-0.11,1.69,0.53,1.8,1.43c0.1,0.89-0.54,1.69-1.43,1.79c-2.23,0.26-3.9,2.14-3.9,4.38v2.03
				C299.35,439.78,298.63,440.51,297.73,440.51z M580,439.06c-0.9,0-1.62-0.73-1.62-1.62v-0.59c0-2.43-1.98-4.4-4.4-4.4h-0.76
				c-0.9,0-1.62-0.73-1.62-1.62s0.73-1.62,1.62-1.62h0.76c4.22,0,7.65,3.43,7.65,7.65v0.59C581.62,438.34,580.9,439.06,580,439.06z
				 M562.41,432.45h-10.81c-0.9,0-1.62-0.73-1.62-1.62s0.73-1.62,1.62-1.62h10.81c0.9,0,1.62,0.73,1.62,1.62
				S563.31,432.45,562.41,432.45z M540.8,432.45h-10.81c-0.9,0-1.62-0.73-1.62-1.62s0.73-1.62,1.62-1.62h10.81
				c0.9,0,1.62,0.73,1.62,1.62S541.7,432.45,540.8,432.45z M519.19,432.45h-10.81c-0.9,0-1.62-0.73-1.62-1.62s0.73-1.62,1.62-1.62
				h10.81c0.9,0,1.62,0.73,1.62,1.62S520.08,432.45,519.19,432.45z M497.58,432.45h-10.81c-0.9,0-1.62-0.73-1.62-1.62
				s0.73-1.62,1.62-1.62h10.81c0.9,0,1.62,0.73,1.62,1.62S498.47,432.45,497.58,432.45z M475.96,432.45h-10.81
				c-0.9,0-1.62-0.73-1.62-1.62s0.73-1.62,1.62-1.62h10.81c0.9,0,1.62,0.73,1.62,1.62S476.86,432.45,475.96,432.45z M454.35,432.45
				h-10.81c-0.9,0-1.62-0.73-1.62-1.62s0.73-1.62,1.62-1.62h10.81c0.9,0,1.62,0.73,1.62,1.62S455.25,432.45,454.35,432.45z
				 M432.74,432.45h-10.81c-0.9,0-1.62-0.73-1.62-1.62s0.73-1.62,1.62-1.62h10.81c0.9,0,1.62,0.73,1.62,1.62
				S433.64,432.45,432.74,432.45z M411.13,432.45h-10.81c-0.9,0-1.62-0.73-1.62-1.62s0.73-1.62,1.62-1.62h10.81
				c0.9,0,1.62,0.73,1.62,1.62S412.02,432.45,411.13,432.45z M389.52,432.45h-10.81c-0.9,0-1.62-0.73-1.62-1.62s0.73-1.62,1.62-1.62
				h10.81c0.9,0,1.62,0.73,1.62,1.62S390.41,432.45,389.52,432.45z M367.9,432.45H357.1c-0.9,0-1.62-0.73-1.62-1.62
				s0.73-1.62,1.62-1.62h10.81c0.9,0,1.62,0.73,1.62,1.62S368.8,432.45,367.9,432.45z M346.29,432.45h-10.81
				c-0.9,0-1.62-0.73-1.62-1.62s0.73-1.62,1.62-1.62h10.81c0.9,0,1.62,0.73,1.62,1.62S347.19,432.45,346.29,432.45z M324.68,432.45
				h-10.81c-0.9,0-1.62-0.73-1.62-1.62s0.73-1.62,1.62-1.62h10.81c0.9,0,1.62,0.73,1.62,1.62S325.58,432.45,324.68,432.45z"/>
		</g>
		<g>
			<path class="st1" d="M855.28,469.42h-10.81c-0.89,0-1.62-0.73-1.62-1.62c0-0.89,0.73-1.62,1.62-1.62h10.81
				c1.61,0,3.1-0.89,3.88-2.32c0.43-0.79,1.41-1.08,2.2-0.65c0.79,0.43,1.08,1.41,0.65,2.2
				C860.65,467.88,858.08,469.42,855.28,469.42z M833.66,469.42h-10.81c-0.89,0-1.62-0.73-1.62-1.62c0-0.89,0.73-1.62,1.62-1.62
				h10.81c0.89,0,1.62,0.73,1.62,1.62C835.28,468.69,834.56,469.42,833.66,469.42z M812.05,469.42h-10.81
				c-0.89,0-1.62-0.73-1.62-1.62c0-0.89,0.73-1.62,1.62-1.62h10.81c0.89,0,1.62,0.73,1.62,1.62
				C813.67,468.69,812.95,469.42,812.05,469.42z M790.44,469.42h-10.81c-0.89,0-1.62-0.73-1.62-1.62c0-0.89,0.73-1.62,1.62-1.62
				h10.81c0.89,0,1.62,0.73,1.62,1.62C792.06,468.69,791.33,469.42,790.44,469.42z M768.83,469.42h-10.81
				c-0.89,0-1.62-0.73-1.62-1.62c0-0.89,0.73-1.62,1.62-1.62h10.81c0.89,0,1.62,0.73,1.62,1.62
				C770.45,468.69,769.72,469.42,768.83,469.42z M747.22,469.42h-10.81c-0.89,0-1.62-0.73-1.62-1.62c0-0.89,0.73-1.62,1.62-1.62
				h10.81c0.89,0,1.62,0.73,1.62,1.62C748.84,468.69,748.11,469.42,747.22,469.42z M725.6,469.42H714.8c-0.89,0-1.62-0.73-1.62-1.62
				c0-0.89,0.73-1.62,1.62-1.62h10.81c0.89,0,1.62,0.73,1.62,1.62C727.22,468.69,726.5,469.42,725.6,469.42z M703.99,469.42h-10.81
				c-0.89,0-1.62-0.73-1.62-1.62c0-0.89,0.73-1.62,1.62-1.62h10.81c0.89,0,1.62,0.73,1.62,1.62
				C705.61,468.69,704.89,469.42,703.99,469.42z M682.38,469.42h-10.81c-0.89,0-1.62-0.73-1.62-1.62c0-0.89,0.73-1.62,1.62-1.62
				h10.81c0.89,0,1.62,0.73,1.62,1.62C684,468.69,683.27,469.42,682.38,469.42z M660.77,469.42h-10.81c-0.89,0-1.62-0.73-1.62-1.62
				c0-0.89,0.73-1.62,1.62-1.62h10.81c0.89,0,1.62,0.73,1.62,1.62C662.39,468.69,661.66,469.42,660.77,469.42z M639.16,469.42
				h-10.81c-0.89,0-1.62-0.73-1.62-1.62c0-0.89,0.73-1.62,1.62-1.62h10.81c0.89,0,1.62,0.73,1.62,1.62
				C640.78,468.69,640.05,469.42,639.16,469.42z M617.54,469.42h-10.81c-0.89,0-1.62-0.73-1.62-1.62c0-0.89,0.73-1.62,1.62-1.62
				h10.81c0.89,0,1.62,0.73,1.62,1.62C619.17,468.69,618.44,469.42,617.54,469.42z M598.23,464.66c-0.75,0-1.42-0.52-1.58-1.28
				c-0.11-0.53-0.17-1.07-0.17-1.6v-9.53c0-0.89,0.73-1.62,1.62-1.62c0.89,0,1.62,0.73,1.62,1.62v9.53c0,0.31,0.03,0.62,0.1,0.92
				c0.19,0.87-0.37,1.74-1.25,1.92C598.45,464.65,598.34,464.66,598.23,464.66z M861.3,455.57c-0.89,0-1.62-0.73-1.62-1.62v-10.81
				c0-0.89,0.73-1.62,1.62-1.62c0.89,0,1.62,0.73,1.62,1.62v10.81C862.92,454.85,862.2,455.57,861.3,455.57z M598.09,443.06
				c-0.89,0-1.62-0.73-1.62-1.62v-4.58c0-2.67,1.43-5.18,3.73-6.56c0.76-0.46,1.76-0.21,2.22,0.56c0.46,0.77,0.21,1.76-0.56,2.22
				c-1.33,0.8-2.15,2.25-2.15,3.78v4.58C599.72,442.33,598.99,443.06,598.09,443.06z M859.68,434.38c-0.43,0-0.87-0.17-1.19-0.52
				c-0.83-0.9-2.01-1.41-3.22-1.41h-5.86c-0.89,0-1.62-0.73-1.62-1.62s0.73-1.62,1.62-1.62h5.86c2.11,0,4.15,0.89,5.59,2.44
				c0.61,0.65,0.57,1.68-0.08,2.29C860.47,434.23,860.08,434.38,859.68,434.38z M838.61,432.45H827.8c-0.89,0-1.62-0.73-1.62-1.62
				s0.73-1.62,1.62-1.62h10.81c0.89,0,1.62,0.73,1.62,1.62S839.51,432.45,838.61,432.45z M817,432.45h-10.81
				c-0.89,0-1.62-0.73-1.62-1.62s0.73-1.62,1.62-1.62H817c0.89,0,1.62,0.73,1.62,1.62S817.89,432.45,817,432.45z M795.39,432.45
				h-10.81c-0.89,0-1.62-0.73-1.62-1.62s0.73-1.62,1.62-1.62h10.81c0.89,0,1.62,0.73,1.62,1.62S796.28,432.45,795.39,432.45z
				 M773.78,432.45h-10.81c-0.89,0-1.62-0.73-1.62-1.62s0.73-1.62,1.62-1.62h10.81c0.89,0,1.62,0.73,1.62,1.62
				S774.67,432.45,773.78,432.45z M752.16,432.45h-10.81c-0.89,0-1.62-0.73-1.62-1.62s0.73-1.62,1.62-1.62h10.81
				c0.89,0,1.62,0.73,1.62,1.62S753.06,432.45,752.16,432.45z M730.55,432.45h-10.81c-0.89,0-1.62-0.73-1.62-1.62
				s0.73-1.62,1.62-1.62h10.81c0.89,0,1.62,0.73,1.62,1.62S731.45,432.45,730.55,432.45z M708.94,432.45h-10.81
				c-0.89,0-1.62-0.73-1.62-1.62s0.73-1.62,1.62-1.62h10.81c0.89,0,1.62,0.73,1.62,1.62S709.83,432.45,708.94,432.45z
				 M687.33,432.45h-10.81c-0.89,0-1.62-0.73-1.62-1.62s0.73-1.62,1.62-1.62h10.81c0.89,0,1.62,0.73,1.62,1.62
				S688.22,432.45,687.33,432.45z M665.72,432.45h-10.81c-0.89,0-1.62-0.73-1.62-1.62s0.73-1.62,1.62-1.62h10.81
				c0.89,0,1.62,0.73,1.62,1.62S666.61,432.45,665.72,432.45z M644.1,432.45H633.3c-0.89,0-1.62-0.73-1.62-1.62s0.73-1.62,1.62-1.62
				h10.81c0.89,0,1.62,0.73,1.62,1.62S645,432.45,644.1,432.45z M622.49,432.45h-10.81c-0.89,0-1.62-0.73-1.62-1.62
				s0.73-1.62,1.62-1.62h10.81c0.89,0,1.62,0.73,1.62,1.62S623.39,432.45,622.49,432.45z"/>
		</g>
		<g>
			<path class="st3" d="M849.3,258.39H610.09c-6.6,0-12-5.4-12-12v-71.84c0-6.6,5.4-12,12-12H849.3c6.6,0,12,5.4,12,12v71.84
				C861.3,252.99,855.9,258.39,849.3,258.39z"/>
		</g>
		<g>
			<g>
				<path class="st1" d="M853.28,183.37c-0.28,0-0.55-0.11-0.76-0.32l-11.36-11.36c-0.42-0.42-0.42-1.11,0-1.53
					c0.42-0.42,1.11-0.42,1.53,0l11.36,11.36c0.42,0.42,0.42,1.11,0,1.53C853.83,183.27,853.55,183.37,853.28,183.37z"/>
			</g>
			<g>
				<path class="st1" d="M841.92,183.37c-0.28,0-0.55-0.11-0.76-0.32c-0.42-0.42-0.42-1.11,0-1.53l11.36-11.36
					c0.42-0.42,1.11-0.42,1.53,0c0.42,0.42,0.42,1.11,0,1.53l-11.36,11.36C842.47,183.27,842.19,183.37,841.92,183.37z"/>
			</g>
		</g>
		<g>
			<path class="st1" d="M833.04,183.37h-11.36c-0.6,0-1.08-0.48-1.08-1.08c0-0.6,0.48-1.08,1.08-1.08h11.36
				c0.6,0,1.08,0.48,1.08,1.08C834.12,182.89,833.64,183.37,833.04,183.37z"/>
		</g>
		<g>
			<g>
				<circle class="st3" cx="797.05" cy="111.76" r="9.04"/>
			</g>
			<g>
				<circle class="st3" cx="824.81" cy="111.76" r="9.04"/>
			</g>
			<g>
				<circle class="st3" cx="852.26" cy="111.76" r="9.04"/>
			</g>
		</g>
		<g>
			<g>
				<g>
					<g>
						<g>
							<path class="st1" d="M711.17,352.3h-89.82c-1.57,0-2.86-1.29-2.86-2.86l0,0c0-1.57,1.29-2.86,2.86-2.86h89.82
								c1.57,0,2.86,1.29,2.86,2.86l0,0C714.03,351.02,712.74,352.3,711.17,352.3z"/>
						</g>
					</g>
					<g>
						<g>
							<path class="st1" d="M659.07,362.9h-37.72c-1.57,0-2.86-1.29-2.86-2.86l0,0c0-1.57,1.29-2.86,2.86-2.86h37.72
								c1.57,0,2.86,1.29,2.86,2.86l0,0C661.93,361.61,660.64,362.9,659.07,362.9z"/>
						</g>
					</g>
					<g>
						<g>
							<path class="st1" d="M676.84,362.9h-5.49c-1.57,0-2.86-1.29-2.86-2.86l0,0c0-1.57,1.29-2.86,2.86-2.86h5.49
								c1.57,0,2.86,1.29,2.86,2.86l0,0C679.69,361.61,678.41,362.9,676.84,362.9z"/>
						</g>
					</g>
					<g>
						<g>
							<path class="st1" d="M688.28,373.49h-66.93c-1.57,0-2.86-1.29-2.86-2.86l0,0c0-1.57,1.29-2.86,2.86-2.86h66.93
								c1.57,0,2.86,1.29,2.86,2.86l0,0C691.14,372.2,689.85,373.49,688.28,373.49z"/>
						</g>
					</g>
				</g>
				<g>
					<g>
						<g>
							<path class="st1" d="M839.12,352.3H749.3c-1.57,0-2.86-1.29-2.86-2.86l0,0c0-1.57,1.29-2.86,2.86-2.86h89.82
								c1.57,0,2.86,1.29,2.86,2.86l0,0C841.98,351.02,840.7,352.3,839.12,352.3z"/>
						</g>
					</g>
					<g>
						<g>
							<path class="st1" d="M787.02,362.9H749.3c-1.57,0-2.86-1.29-2.86-2.86l0,0c0-1.57,1.29-2.86,2.86-2.86h37.72
								c1.57,0,2.86,1.29,2.86,2.86l0,0C789.88,361.61,788.59,362.9,787.02,362.9z"/>
						</g>
					</g>
					<g>
						<g>
							<path class="st1" d="M804.79,362.9h-5.49c-1.57,0-2.86-1.29-2.86-2.86l0,0c0-1.57,1.29-2.86,2.86-2.86h5.49
								c1.57,0,2.86,1.29,2.86,2.86l0,0C807.64,361.61,806.36,362.9,804.79,362.9z"/>
						</g>
					</g>
					<g>
						<g>
							<path class="st1" d="M816.23,373.49H749.3c-1.57,0-2.86-1.29-2.86-2.86l0,0c0-1.57,1.29-2.86,2.86-2.86h66.93
								c1.57,0,2.86,1.29,2.86,2.86l0,0C819.09,372.2,817.8,373.49,816.23,373.49z"/>
						</g>
					</g>
				</g>
			</g>
			<g>
				<g>
					<g>
						<g>
							<path class="st1" d="M711.17,386.15h-89.82c-1.57,0-2.86-1.29-2.86-2.86l0,0c0-1.57,1.29-2.86,2.86-2.86h89.82
								c1.57,0,2.86,1.29,2.86,2.86l0,0C714.03,384.86,712.74,386.15,711.17,386.15z"/>
						</g>
					</g>
					<g>
						<g>
							<path class="st1" d="M659.07,396.74h-37.72c-1.57,0-2.86-1.29-2.86-2.86l0,0c0-1.57,1.29-2.86,2.86-2.86h37.72
								c1.57,0,2.86,1.29,2.86,2.86l0,0C661.93,395.45,660.64,396.74,659.07,396.74z"/>
						</g>
					</g>
					<g>
						<g>
							<path class="st1" d="M676.84,396.74h-5.49c-1.57,0-2.86-1.29-2.86-2.86l0,0c0-1.57,1.29-2.86,2.86-2.86h5.49
								c1.57,0,2.86,1.29,2.86,2.86l0,0C679.69,395.45,678.41,396.74,676.84,396.74z"/>
						</g>
					</g>
					<g>
						<g>
							<path class="st1" d="M688.28,407.33h-66.93c-1.57,0-2.86-1.29-2.86-2.86l0,0c0-1.57,1.29-2.86,2.86-2.86h66.93
								c1.57,0,2.86,1.29,2.86,2.86l0,0C691.14,406.05,689.85,407.33,688.28,407.33z"/>
						</g>
					</g>
				</g>
				<g>
					<g>
						<g>
							<path class="st1" d="M839.12,386.15H749.3c-1.57,0-2.86-1.29-2.86-2.86l0,0c0-1.57,1.29-2.86,2.86-2.86h89.82
								c1.57,0,2.86,1.29,2.86,2.86l0,0C841.98,384.86,840.7,386.15,839.12,386.15z"/>
						</g>
					</g>
					<g>
						<g>
							<path class="st1" d="M787.02,396.74H749.3c-1.57,0-2.86-1.29-2.86-2.86l0,0c0-1.57,1.29-2.86,2.86-2.86h37.72
								c1.57,0,2.86,1.29,2.86,2.86l0,0C789.88,395.45,788.59,396.74,787.02,396.74z"/>
						</g>
					</g>
					<g>
						<g>
							<path class="st1" d="M804.79,396.74h-5.49c-1.57,0-2.86-1.29-2.86-2.86l0,0c0-1.57,1.29-2.86,2.86-2.86h5.49
								c1.57,0,2.86,1.29,2.86,2.86l0,0C807.64,395.45,806.36,396.74,804.79,396.74z"/>
						</g>
					</g>
					<g>
						<g>
							<path class="st1" d="M816.23,407.33H749.3c-1.57,0-2.86-1.29-2.86-2.86l0,0c0-1.57,1.29-2.86,2.86-2.86h66.93
								c1.57,0,2.86,1.29,2.86,2.86l0,0C819.09,406.05,817.8,407.33,816.23,407.33z"/>
						</g>
					</g>
				</g>
			</g>
			<g>
				<g>
					<g>
						<g>
							<path class="st1" d="M710.09,283.7h-89.82c-1.57,0-2.86-1.29-2.86-2.86l0,0c0-1.57,1.29-2.86,2.86-2.86h89.82
								c1.57,0,2.86,1.29,2.86,2.86l0,0C712.95,282.41,711.66,283.7,710.09,283.7z"/>
						</g>
					</g>
					<g>
						<g>
							<path class="st1" d="M657.99,294.29h-37.72c-1.57,0-2.86-1.29-2.86-2.86l0,0c0-1.57,1.29-2.86,2.86-2.86h37.72
								c1.57,0,2.86,1.29,2.86,2.86l0,0C660.84,293,659.56,294.29,657.99,294.29z"/>
						</g>
					</g>
					<g>
						<g>
							<path class="st1" d="M675.75,294.29h-5.49c-1.57,0-2.86-1.29-2.86-2.86l0,0c0-1.57,1.29-2.86,2.86-2.86h5.49
								c1.57,0,2.86,1.29,2.86,2.86l0,0C678.61,293,677.32,294.29,675.75,294.29z"/>
						</g>
					</g>
					<g>
						<g>
							<path class="st1" d="M687.2,304.88h-66.93c-1.57,0-2.86-1.29-2.86-2.86l0,0c0-1.57,1.29-2.86,2.86-2.86h66.93
								c1.57,0,2.86,1.29,2.86,2.86l0,0C690.06,303.59,688.77,304.88,687.2,304.88z"/>
						</g>
					</g>
				</g>
				<g>
					<g>
						<g>
							<path class="st1" d="M838.04,283.7h-89.82c-1.57,0-2.86-1.29-2.86-2.86l0,0c0-1.57,1.29-2.86,2.86-2.86h89.82
								c1.57,0,2.86,1.29,2.86,2.86l0,0C840.9,282.41,839.61,283.7,838.04,283.7z"/>
						</g>
					</g>
					<g>
						<g>
							<path class="st1" d="M785.94,294.29h-37.72c-1.57,0-2.86-1.29-2.86-2.86l0,0c0-1.57,1.29-2.86,2.86-2.86h37.72
								c1.57,0,2.86,1.29,2.86,2.86l0,0C788.8,293,787.51,294.29,785.94,294.29z"/>
						</g>
					</g>
					<g>
						<g>
							<path class="st1" d="M803.71,294.29h-5.49c-1.57,0-2.86-1.29-2.86-2.86l0,0c0-1.57,1.29-2.86,2.86-2.86h5.49
								c1.57,0,2.86,1.29,2.86,2.86l0,0C806.56,293,805.28,294.29,803.71,294.29z"/>
						</g>
					</g>
					<g>
						<g>
							<path class="st1" d="M815.15,304.88h-66.93c-1.57,0-2.86-1.29-2.86-2.86l0,0c0-1.57,1.29-2.86,2.86-2.86h66.93
								c1.57,0,2.86,1.29,2.86,2.86l0,0C818.01,303.59,816.72,304.88,815.15,304.88z"/>
						</g>
					</g>
				</g>
			</g>
			<g>
				<g>
					<g>
						<g>
							<path class="st1" d="M710.09,317.54h-89.82c-1.57,0-2.86-1.29-2.86-2.86l0,0c0-1.57,1.29-2.86,2.86-2.86h89.82
								c1.57,0,2.86,1.29,2.86,2.86l0,0C712.95,316.26,711.66,317.54,710.09,317.54z"/>
						</g>
					</g>
					<g>
						<g>
							<path class="st1" d="M657.99,328.13h-37.72c-1.57,0-2.86-1.29-2.86-2.86l0,0c0-1.57,1.29-2.86,2.86-2.86h37.72
								c1.57,0,2.86,1.29,2.86,2.86l0,0C660.84,326.85,659.56,328.13,657.99,328.13z"/>
						</g>
					</g>
					<g>
						<g>
							<path class="st1" d="M675.75,328.13h-5.49c-1.57,0-2.86-1.29-2.86-2.86l0,0c0-1.57,1.29-2.86,2.86-2.86h5.49
								c1.57,0,2.86,1.29,2.86,2.86l0,0C678.61,326.85,677.32,328.13,675.75,328.13z"/>
						</g>
					</g>
					<g>
						<g>
							<path class="st1" d="M687.2,338.72h-66.93c-1.57,0-2.86-1.29-2.86-2.86l0,0c0-1.57,1.29-2.86,2.86-2.86h66.93
								c1.57,0,2.86,1.29,2.86,2.86l0,0C690.06,337.44,688.77,338.72,687.2,338.72z"/>
						</g>
					</g>
				</g>
				<g>
					<g>
						<g>
							<path class="st1" d="M838.04,317.54h-89.82c-1.57,0-2.86-1.29-2.86-2.86l0,0c0-1.57,1.29-2.86,2.86-2.86h89.82
								c1.57,0,2.86,1.29,2.86,2.86l0,0C840.9,316.26,839.61,317.54,838.04,317.54z"/>
						</g>
					</g>
					<g>
						<g>
							<path class="st1" d="M785.94,328.13h-37.72c-1.57,0-2.86-1.29-2.86-2.86l0,0c0-1.57,1.29-2.86,2.86-2.86h37.72
								c1.57,0,2.86,1.29,2.86,2.86l0,0C788.8,326.85,787.51,328.13,785.94,328.13z"/>
						</g>
					</g>
					<g>
						<g>
							<path class="st1" d="M803.71,328.13h-5.49c-1.57,0-2.86-1.29-2.86-2.86l0,0c0-1.57,1.29-2.86,2.86-2.86h5.49
								c1.57,0,2.86,1.29,2.86,2.86l0,0C806.56,326.85,805.28,328.13,803.71,328.13z"/>
						</g>
					</g>
					<g>
						<g>
							<path class="st1" d="M815.15,338.72h-66.93c-1.57,0-2.86-1.29-2.86-2.86l0,0c0-1.57,1.29-2.86,2.86-2.86h66.93
								c1.57,0,2.86,1.29,2.86,2.86l0,0C818.01,337.44,816.72,338.72,815.15,338.72z"/>
						</g>
					</g>
				</g>
			</g>
		</g>
	</g>
	<g>
		<g>
			<g>
				<path class="st4" d="M401.66,585.02c11.37,6.35,18.95,14.42,16.94,18.02c-2.01,3.6-12.85,1.36-24.22-4.99
					c-11.36-6.35-18.95-14.42-16.94-18.02C379.45,576.43,390.29,578.67,401.66,585.02z"/>
			</g>
			<g>
				<defs>
					<path id="SVGID_1_" d="M401.66,585.02c11.37,6.35,18.95,14.42,16.94,18.02c-2.01,3.6-12.85,1.36-24.22-4.99
						c-11.36-6.35-18.95-14.42-16.94-18.02C379.45,576.43,390.29,578.67,401.66,585.02z"/>
				</defs>
				<clipPath id="SVGID_2_">
					<use xlink:href="#SVGID_1_"  style="overflow:visible;"/>
				</clipPath>
				<g class="st5">
					
						<rect x="391.15" y="547.23" transform="matrix(0.488 -0.8729 0.8729 0.488 -296.0856 650.6257)" class="st6" width="30.73" height="60.9"/>
				</g>
			</g>
		</g>
		<g>
			<g>
				
					<ellipse transform="matrix(0.2269 -0.9739 0.9739 0.2269 -184.8495 857.6115)" class="st4" cx="447.76" cy="545.24" rx="70.84" ry="22.42"/>
			</g>
			<g>
				<defs>
					
						<ellipse id="SVGID_3_" transform="matrix(0.2269 -0.9739 0.9739 0.2269 -184.8495 857.6115)" cx="447.76" cy="545.24" rx="70.84" ry="22.42"/>
				</defs>
				<clipPath id="SVGID_4_">
					<use xlink:href="#SVGID_3_"  style="overflow:visible;"/>
				</clipPath>
				<g class="st7">
					
						<rect x="448.68" y="466.72" transform="matrix(0.9739 0.2269 -0.2269 0.9739 139.5669 -97.7202)" class="st6" width="92.33" height="183.01"/>
				</g>
			</g>
		</g>
		<g>
			<g>
				
					<ellipse transform="matrix(0.9091 -0.4167 0.4167 0.9091 -193.1119 216.6651)" class="st4" cx="399.8" cy="550.73" rx="21.32" ry="67.36"/>
			</g>
			<g>
				<defs>
					
						<ellipse id="SVGID_5_" transform="matrix(0.9091 -0.4167 0.4167 0.9091 -193.1119 216.6651)" cx="399.8" cy="550.73" rx="21.32" ry="67.36"/>
				</defs>
				<clipPath id="SVGID_6_">
					<use xlink:href="#SVGID_5_"  style="overflow:visible;"/>
				</clipPath>
				<g class="st8">
					
						<rect x="398.87" y="446.1" transform="matrix(0.9091 -0.4167 0.4167 0.9091 -181.8588 232.9618)" class="st6" width="87.78" height="174"/>
				</g>
			</g>
		</g>
		<g>
			<g>
				<path class="st6" d="M451.62,560.68c-14.66,25.55-19.98,50.03-11.89,54.67c8.09,4.64,26.53-12.32,41.18-37.87
					c14.66-25.55,19.98-50.03,11.89-54.67C484.71,518.17,466.27,535.12,451.62,560.68z"/>
			</g>
			<g>
				<defs>
					<path id="SVGID_7_" d="M451.62,560.68c-14.66,25.55-19.98,50.03-11.89,54.67c8.09,4.64,26.53-12.32,41.18-37.87
						c14.66-25.55,19.98-50.03,11.89-54.67C484.71,518.17,466.27,535.12,451.62,560.68z"/>
				</defs>
				<clipPath id="SVGID_8_">
					<use xlink:href="#SVGID_7_"  style="overflow:visible;"/>
				</clipPath>
				<g class="st9">
					
						<rect x="398.89" y="483.18" transform="matrix(-0.8675 -0.4975 0.4975 -0.8675 535.1609 1246.7347)" class="st4" width="69.52" height="137.79"/>
				</g>
			</g>
		</g>
		<g>
			<g>
				<g>
					<path class="st10" d="M450.52,684.42h-29.85c-7.75,0-14.21-5.94-14.87-13.67l-4.79-55.62h69.17l-4.79,55.62
						C464.73,678.48,458.27,684.42,450.52,684.42z"/>
				</g>
				<g>
					<path class="st11" d="M460.13,615.13l-4.27,49.65c-0.67,7.73-7.13,13.67-14.87,13.67h-29.85c-0.87,0-1.72-0.08-2.56-0.22
						c2.72,3.77,7.15,6.2,12.1,6.2h29.85c7.75,0,14.21-5.94,14.87-13.67l4.79-55.62H460.13z"/>
				</g>
				<g>
					<path class="st11" d="M450.52,684.75h-29.85c-7.98,0-14.51-6-15.2-13.97l-4.82-55.97h69.88l-0.03,0.35l-4.79,55.62
						C465.04,678.74,458.5,684.75,450.52,684.75z M401.37,615.45l4.76,55.27c0.66,7.62,6.91,13.37,14.55,13.37h29.85
						c7.64,0,13.9-5.75,14.55-13.37l4.76-55.27H401.37z"/>
				</g>
				<g>
					<path class="st11" d="M476.11,618.12h-79.82c-2.33,0-4.22-1.89-4.22-4.22v-7.1c0-2.33,1.89-4.22,4.22-4.22h79.82
						c2.33,0,4.22,1.89,4.22,4.22v7.1C480.32,616.23,478.44,618.12,476.11,618.12z"/>
				</g>
				<g>
					<path class="st10" d="M396.28,602.59c-2.33,0-4.22,1.89-4.22,4.22v1.67h79.38c2.33,0,4.22-1.89,4.22-4.22v-1.67H396.28z"/>
				</g>
				<g>
					<path class="st11" d="M476.11,618.44h-79.82c-2.5,0-4.54-2.04-4.54-4.54v-7.1c0-0.18,0.15-0.32,0.32-0.32
						c0.18,0,0.32,0.15,0.32,0.32v7.1c0,2.15,1.75,3.89,3.89,3.89h79.82c2.15,0,3.89-1.75,3.89-3.89v-7.1
						c0-2.15-1.75-3.89-3.89-3.89H446c-0.18,0-0.32-0.15-0.32-0.32c0-0.18,0.15-0.32,0.32-0.32h30.11c2.5,0,4.54,2.04,4.54,4.54v7.1
						C480.65,616.4,478.61,618.44,476.11,618.44z"/>
				</g>
			</g>
		</g>
	</g>
	<g>
		<defs>
			<rect id="SVGID_9_" x="82.16" y="88.97" width="995.68" height="597.04"/>
		</defs>
		<clipPath id="SVGID_10_">
			<use xlink:href="#SVGID_9_"  style="overflow:visible;"/>
		</clipPath>
		<g class="st12">
			<g>
				<g>
					<path class="st13" d="M239.15,249.94c0,0-26.27-12.29-43.24-2.89c-16.97,9.4-33.84,37.14-31.24,59.96
						c2.6,22.82-25.57,41.63-28.64,59.73c-3.07,18.1-2.7,16.49,7.79,33.88c10.49,17.39-19.19,36.86,1.27,48.63
						c20.46,11.77,52.12-14.69,77.88-25.42c25.75-10.72,89.45,15.46,95.22-7.6c5.77-23.06-2.88-31.71-9.21-43.71
						c-6.33-12,12.62-16.87,6.57-37.28c-6.05-20.41-28.87-35.11-29.96-47.07c-1.09-11.96,9.59-15.55,1.23-26.84
						C278.47,250.04,268.4,237.33,239.15,249.94z"/>
				</g>
				<g>
					<g>
						<path class="st14" d="M344.99,497.2c5.31-2.37,10.95,1.29,19.4,6.34c19.41,11.61,68.54,24.15,85.31,29.83l-5.83,16.73
							c-48.51-2.86-69.8-7.39-87.43-12.01c-10.69-2.81-17.14-8.01-20.21-12.02c-1.63-2.14-2.94-4.76-3.1-7.93
							C332.79,511.28,338.46,500.12,344.99,497.2z"/>
					</g>
					<g>
						<path class="st14" d="M503.29,574.01c2.91,0.31,19.82-3.38,20.24-4.51c0.81-2.2-5.29-4.01-8.4-3.96
							c-2.82,0.05-12.91,1.06-18.47-1.3l-9.78,6.63C492.28,571.88,501.29,573.8,503.29,574.01z"/>
					</g>
					<g>
						<g>
							<path class="st14" d="M497.78,565.11c-0.54-0.28-1.04-0.57-1.46-0.92c0,0,0.09-0.03,0.21-0.07l-4.93-17.77
								c-1.96,0.31-4.48,0.62-5.71,0.38c0,0-6.41-8.52-13.61-11.9c-3.26-1.53-9.56-0.04-12.51,0.81
								c-3.34-0.63-11.19-2.27-18.88-4.96c-10.12-3.54-17.39,17.84-10.22,18.27c6.69,0.4,12.03,1.6,23.39,2.2
								c3.91,2.61,21.99,12.28,28.65,18.22c0.57,0.5,1.26,0.84,2.04,1.02c0.01,0,0.03,0.01,0.04,0.01c0.71,0.16,1.69,0.4,2.83,0.7
								L497.78,565.11z"/>
						</g>
						<g>
							<g>
								<path class="st14" d="M491.71,560.11c0.83-1.31,3.44-3.75,3.44-3.75c6.5-0.69,13.81-5.63,17.5-10.41
									c1.93-2.5,7.67-4.14,8.77-2.41c0.6,0.95-9.49,13.58-12.15,15.15c-2.21,1.31-14.88,7.21-18.7,9.28
									c-0.01,0.01-0.03,0.01-0.04,0.02C489.54,565.75,490.4,562.19,491.71,560.11z"/>
							</g>
							<g>
								<path class="st15" d="M490.18,568.14c-0.07-0.17,0.03-0.38,0.21-0.47c1.91-1.03,5.91-2.96,9.78-4.84
									c4.02-1.95,7.82-3.78,8.93-4.44c2.63-1.55,12.05-13.53,11.98-14.72c-0.23-0.35-0.87-0.55-1.77-0.52
									c-1.98,0.07-5.09,1.3-6.38,2.96c-3.54,4.58-10.98,9.85-17.78,10.57c-0.2,0.02-0.36-0.11-0.36-0.3
									c0-0.19,0.16-0.36,0.36-0.38c6.58-0.7,13.78-5.81,17.22-10.25c1.45-1.88,4.79-3.21,7-3.29c1.17-0.04,1.98,0.26,2.36,0.85
									c0.12,0.2,0.06,0.43,0.01,0.6c-0.7,2.25-9.63,13.45-12.31,15.03c-1.14,0.67-4.95,2.52-8.99,4.47
									c-3.86,1.87-7.86,3.8-9.72,4.81l-0.18-0.28l0.09,0.32C490.45,568.38,490.26,568.31,490.18,568.14z"/>
							</g>
							<g>
								<path class="st14" d="M488.46,555.11c0.71-1.24,3.04-3.58,3.04-3.58c6.01-0.88,12.6-5.71,15.83-10.25
									c1.69-2.38,6.96-4.1,8.05-2.55c0.6,0.85-8.25,12.86-10.65,14.4c-2,1.29-13.53,7.2-16.99,9.25
									c-0.01,0.01-0.03,0.01-0.04,0.02C486.68,560.38,487.33,557.07,488.46,555.11z"/>
							</g>
							<g>
								<path class="st15" d="M487.34,562.57c-0.07-0.15,0.02-0.36,0.19-0.46c0.02-0.01,0.07-0.03,0.09-0.04
									c1.66-0.99,5.3-2.92,8.82-4.79c3.66-1.94,7.11-3.78,8.11-4.42c2.34-1.5,10.59-12.87,10.5-13.98
									c-0.22-0.29-0.81-0.45-1.64-0.39c-1.84,0.13-4.66,1.38-5.78,2.96c-0.12,0.16-0.34,0.22-0.5,0.13
									c-0.16-0.09-0.2-0.3-0.08-0.46c1.27-1.79,4.33-3.15,6.39-3.3c1.09-0.08,1.87,0.16,2.26,0.7c0.13,0.18,0.08,0.41,0.04,0.57
									c-0.56,2.1-8.4,12.76-10.82,14.32c-1.03,0.67-4.5,2.51-8.17,4.46c-3.51,1.87-7.14,3.79-8.83,4.8l-0.03,0.02l-0.05,0.02
									c-0.18,0.11-0.37,0.05-0.46-0.1C487.35,562.59,487.34,562.58,487.34,562.57z"/>
							</g>
							<g>
								<path class="st14" d="M482.61,549.36c0.86-0.89,3.26-2.36,3.26-2.36c4.95,0.54,11.3-2.1,14.94-5.23
									c1.91-1.64,6.47-1.96,6.96-0.43c0.27,0.84-9.59,9.04-11.86,9.82c-1.88,0.65-12.4,3.16-15.62,4.14
									C480.28,555.31,481.25,550.77,482.61,549.36z"/>
							</g>
							<g>
								<path class="st15" d="M484.32,554.28c-0.01-0.02-0.02-0.04-0.02-0.07c-0.03-0.18,0.1-0.37,0.3-0.42
									c1.19-0.31,2.49-0.64,3.76-0.96c3.35-0.85,6.52-1.66,7.46-1.98c2.23-0.77,11.33-8.45,11.59-9.45
									c-0.1-0.26-0.51-0.5-1.16-0.62c-1.47-0.28-3.97,0.16-5.22,1.23c-3.5,3.01-10.04,5.9-15.25,5.33
									c-0.19-0.02-0.32-0.19-0.27-0.38c0.05-0.19,0.24-0.32,0.43-0.3c4.99,0.55,11.27-2.23,14.64-5.13
									c1.45-1.24,4.21-1.74,5.88-1.42c0.9,0.17,1.48,0.56,1.65,1.1c0.06,0.19-0.03,0.39-0.11,0.53c-0.94,1.65-9.71,8.95-12,9.74
									c-0.98,0.34-4.16,1.15-7.53,2c-1.27,0.32-2.56,0.65-3.76,0.96C484.55,554.49,484.39,554.42,484.32,554.28z"/>
							</g>
						</g>
					</g>
				</g>
				<g>
					<path class="st16" d="M274.25,411.47c3.38-7.93-5.17-39.11,10.51-34.83c4.5,1.23,13.2,14.54,22.15,28.07
						c5.4,8.16,24.18,49.02,31.57,64.02c1.55,3.16,3.52,6,5.87,8.48c6.55,6.92,18.63,22.88,18.89,23.52
						c-5.89,4.42-13.62,21.85-15.38,35.94c-47.37-18.16-67.2-89.55-75.85-110.54C270.34,423.07,271.92,416.93,274.25,411.47z"/>
				</g>
				<g>
					<g>
						<path class="st17" d="M200.37,962.14l35.87,18.35l-3.73,52.6c-0.5,6.98,1.72,13.87,6.13,19.3
							c7.61,9.37,17.28,20.24,24.46,24.68l-5.89,15.06l-47.14-5.89L200.37,962.14z"/>
					</g>
					<g>
						<g>
							<path class="st18" d="M207.94,1079.2c0,0,21.54,9.83,47.08,9.32v-19.59l30.27,6.2c10.7,2.19,19.25,9.79,22.86,19.74
								c1.24,3.42-1.52,7.01-5.16,7.01h-41.55h-6.42h-51.36C203.66,1101.88,199.81,1088.61,207.94,1079.2z"/>
						</g>
						<g>
							<path class="st19" d="M256.25,1095.66h6.99h44.99c0.59,3.16-1.88,6.23-5.23,6.23h-41.55h-6.42h-51.36c0,0-0.7-2.59-0.85-6.23
								H256.25z"/>
						</g>
					</g>
				</g>
				<g>
					<path class="st20" d="M324.39,566.17c0,0,20.58,70.63,0,126.24c-20.58,55.61-36.71,116.23-41.71,134.59
						c-5.01,18.35-45.19,186.03-45.19,186.03s-19.6,1.25-35.04-1.67c0,0-10.98-125.41-2.09-158.22
						c8.9-32.81,36.71-76.75,36.71-76.75s-10.57-152.38,3.34-198.54L324.39,566.17z"/>
				</g>
				<g>
					<path class="st17" d="M172.84,974.24l37.96,12.93c0,0-12.3,29.37-15.23,54.04c2.74,20,14.09,31.67,14.09,31.67l0.89,17.61
						l-20.95,1.31l-34.04-47.14C174.51,1005.52,172.84,974.24,172.84,974.24z"/>
				</g>
				<g>
					<g>
						<path class="st21" d="M146.32,1056.62c0,0,0.22-13.4,12.53-15.18l28.7,44.89c3.71,0.33,5.26,0.46,8.97,0.79l13.14-14.24
							l3.85,3.46c4.23,3.81,9.51,6.22,15.11,7.25c12,2.22,19.3,7.11,20.8,18.01c0,0.03-0.02,0.07-0.06,0.07l-53.63,1.11
							c-3.64,0.07-7.16-1.29-9.79-3.81L146.32,1056.62z"/>
					</g>
					<g>
						<path class="st22" d="M147.56,1050.82l39.46,42.17c2.63,2.51,6.15,3.88,9.79,3.81l50.8-1.05c0.8,1.77,1.51,3.62,1.82,5.87
							c0,0.03-0.02,0.07-0.06,0.07l-53.63,1.11c-3.64,0.07-7.16-1.29-9.79-3.81l-39.64-42.35
							C146.32,1056.62,146.42,1053.93,147.56,1050.82z"/>
					</g>
				</g>
				<g>
					<path class="st23" d="M222.78,844.34c0,0,3.82-9.09,0.04-32.45c-2.26-13.98-12.8-50.52-20.9-77.62
						c-4.11-10.68-15.25-39.96-24.23-66.89c-2.41-4.78-4.7-10.11-6.79-16.12c-2.99-8.61-4.53-17.1-5.04-25.28
						c-0.67-3.59-0.97-6.48-0.82-8.46c0.09-1.22,0.37-2.41,0.79-3.55c2.02-36.3,22.32-63.93,22.32-63.93s72.57-27.14,84.35-2.28
						c7.05,14.88,4.7,53.24-3.13,66.55c3.41,11.35,28.06,170.24,25.06,233.93c-0.38,8-34.13,48.34-48.58,73.73
						c-8.11,14.26-20.87,43.47-30.97,74.89c-15.29,0.47-31.13-1.39-45.84-7.8c-0.35-24.06,1.47-48.7,8.13-66.19
						C195.08,875.86,222.78,844.34,222.78,844.34z"/>
				</g>
				<g>
					<path class="st24" d="M174.87,389.49c0,0,24.32-28.46,77.63-21.22c25.97,3.53,42.44,17.85,42.44,17.85
						s19.02,41.53,13.46,186.05c0,0-40.66,16.43-118.64-6.51c0,0,5.42-55.46-2.92-70.06c-6.94-12.14-7.36-28.13-2.08-45.45
						C187.66,440.57,174.87,389.49,174.87,389.49z"/>
				</g>
				<g>
					<defs>
						<path id="SVGID_11_" d="M174.87,389.49c0,0,24.32-28.46,77.63-21.22c25.97,3.53,42.44,17.85,42.44,17.85
							s19.02,41.53,13.46,186.05c0,0-40.66,16.43-118.64-6.51c0,0,5.42-55.46-2.92-70.06c-6.94-12.14-7.36-28.13-2.08-45.45
							C187.66,440.57,174.87,389.49,174.87,389.49z"/>
					</defs>
					<clipPath id="SVGID_12_">
						<use xlink:href="#SVGID_11_"  style="overflow:visible;"/>
					</clipPath>
				</g>
				<g>
					<path class="st25" d="M314.44,499.32c2.18,29.17,7.15,53.97,12.33,78.3l0,0c-6.65,6.42-15.7,9.73-24.92,9.11l-9.01-0.6
						c-1.88-4.99-14.77-68.03-9.79-95.91c10.57-59.11-9.13-87.68-11.74-117.44c3.52,0.65,14.51,1.9,21.14,10.18
						c3.06,3.82,10.18,10.96,22.75,54.09c3.05,7.98,10.63,28.79,10.01,37.17C324.53,483.37,321.2,492.5,314.44,499.32z"/>
				</g>
				<g>
					<path class="st25" d="M192.68,376.84c13.26-7.18,19.25-7.03,26.57-8.36c0,0-0.78,35.23,4.31,51.28
						c5.09,16.05,10.96,24.27,14.88,38.75c3.91,14.48,12.14,60.28,14.09,75.55c1.96,15.27-1.96,48.15-6.65,52.85l-74.77,2.35
						l10.23-69.49c-4.2-35.32-15.05-68.43-22.36-105.1C156.33,401.46,175.8,383.75,192.68,376.84z"/>
				</g>
				<g>
					<defs>
						<path id="SVGID_13_" d="M192.68,376.84c13.26-7.18,19.25-7.03,26.57-8.36c0,0-0.78,35.23,4.31,51.28
							c5.09,16.05,10.96,24.27,14.88,38.75c3.91,14.48,12.14,60.28,14.09,75.55c1.96,15.27-1.96,48.15-6.65,52.85l-74.77,2.35
							l10.23-69.49c-4.2-35.32-15.05-68.43-22.36-105.1C156.33,401.46,175.8,383.75,192.68,376.84z"/>
					</defs>
					<clipPath id="SVGID_14_">
						<use xlink:href="#SVGID_13_"  style="overflow:visible;"/>
					</clipPath>
					<g class="st26">
						<path class="st16" d="M250.56,449.91l-44.63-15.66c0,0,11.74-43.06,12.92-51.28C220.03,374.74,241.56,443.25,250.56,449.91z"
							/>
					</g>
				</g>
				<g>
					<g>
						<g>
							<g>
								<path class="st14" d="M151.3,659.46c-4.02-27.46-9.02-65.77-8.15-90.81c11.29,4.01,23.2,5.79,35.33,6.39
									c-2.39,25.36-13.6,57.64-12.32,83.62c0.63,0.5,1.27,1.03,1.93,1.66c0,0,13.75,10.85,14.79,16.05
									c1.04,5.21,4.4,17.52,4.31,20.01c-0.23,6.19,2.42,14.4,0.75,14.88c-1.67,0.49-4.97,1.83-8.28-10.36l0.01,0.27c0,0,0,0,0,0
									l0.49,13.78c0,0,0.43,4.5-2.86,5.27c-0.26,0.07-0.53,0.13-0.84,0.14c-2.63,0.15-3.7-1.43-4.13-2.59
									c-0.24-0.65-0.28-1.16-0.28-1.16l-1.55-5.17c0,0-0.88,2.61-4.18,2.31c-3.48-0.32-4.3-6.38-4.3-6.38s-1.56,2.75-4.66,1.98
									c-3.1-0.77-3.79-3.42-3.79-3.42s-1.95,1.11-3.46,0.44c-2.41-1.07-3.75-6.73-3.75-6.73s-2.12-16.13,2.14-34.72
									C148.51,664.96,149.36,662.07,151.3,659.46z"/>
							</g>
							<g>
								<path class="st27" d="M170.13,711.51c-0.02-0.18-2.16-17.89-2.28-22.77l0.76-0.02c0.13,4.84,2.26,22.52,2.28,22.7
									L170.13,711.51z"/>
							</g>
							<g>
								<path class="st27" d="M162.03,707.78l-0.28-0.12c-0.43-0.44-1.63-17.63-1.54-20.11l0.76,0.03
									c-0.13,3.54,1.21,18.9,1.41,19.69l-0.35,0.09V707.78z"/>
							</g>
							<g>
								<path class="st27" d="M153.21,706.04c-0.02-0.11-2.05-10.79-1.4-19.66l0.76,0.05c-0.64,8.78,1.37,19.36,1.39,19.46
									L153.21,706.04z"/>
							</g>
							<g>
								<path class="st27" d="M179.29,700.98c-0.02-0.13-1.75-12.99-2.64-16.55l0.74-0.19c0.9,3.6,2.58,16.1,2.65,16.63
									L179.29,700.98z"/>
							</g>
						</g>
						<g>
							<path class="st27" d="M176.13,720.78c-2.67,0-3.74-1.76-4.14-2.85c-0.26-0.69-0.31-1.24-0.31-1.27l-1.28-4.23
								c-0.59,0.83-1.82,1.93-4.11,1.72c-2.93-0.27-4.1-4.1-4.49-5.85c-0.75,0.83-2.28,2.01-4.53,1.44
								c-2.53-0.63-3.56-2.43-3.91-3.26c-0.69,0.31-2.15,0.81-3.4,0.26c-2.55-1.13-3.91-6.75-3.96-6.99l0.74-0.17
								c0.01,0.05,1.32,5.48,3.53,6.47c1.32,0.59,3.1-0.41,3.11-0.42c0.1-0.06,0.23-0.06,0.33-0.02c0.11,0.04,0.19,0.14,0.22,0.25
								c0.03,0.1,0.69,2.44,3.52,3.15c2.77,0.68,4.18-1.7,4.23-1.81c0.08-0.14,0.24-0.21,0.4-0.18c0.16,0.03,0.28,0.16,0.3,0.32
								c0.01,0.06,0.83,5.76,3.96,6.05c2.94,0.28,3.75-1.96,3.78-2.06c0.05-0.16,0.19-0.24,0.37-0.26c0.16,0,0.31,0.11,0.36,0.27
								l1.55,5.17c0.02,0.08,0.06,0.56,0.28,1.14c0.43,1.15,1.43,2.47,3.75,2.35c0.24-0.01,0.48-0.06,0.76-0.13
								c2.95-0.69,2.59-4.82,2.59-4.87l-0.51-14.07l0.76-0.03l0.5,14.05c0.16,1.65-0.3,4.98-3.16,5.65
								c-0.32,0.09-0.61,0.14-0.91,0.15C176.37,720.78,176.24,720.78,176.13,720.78z"/>
						</g>
					</g>
					<g>
						<path class="st16" d="M146.51,494.81c0.01-24.68-0.64-49.74,1.88-69.18c3.04-23.39,15.58-43.27,32.77-43.27
							c6.79,0,8.26,36.45,8.93,45.67c1.27,17.51-4.67,40.75-8.1,67.04c4.35,45.91-8.07,112.15-8.07,112.15s-16.73,0.19-30.53-2.85
							C143.38,604.38,138.21,540.47,146.51,494.81z"/>
					</g>
				</g>
				<g>
					<path class="st14" d="M227.2,371.46l0.03-0.62c-0.06-1.51,0.01-2.98,0.19-4.4l2.55-57.89l22.13,3.75l9.53,54.76
						c0.08,0.19,0.19,0.34,0.27,0.53c5.03,11.97,1.86,24.73-7.08,28.48c-8.94,3.76-20.27-2.9-25.3-14.88
						c-1.37-3.26-2.08-6.57-2.28-9.75L227.2,371.46z"/>
				</g>
				<g>
					<defs>
						<path id="SVGID_15_" d="M227.2,371.46l0.03-0.62c-0.06-1.51,0.01-2.98,0.19-4.4l2.55-57.89l22.13,3.75l9.53,54.76
							c0.08,0.19,0.19,0.34,0.27,0.53c5.03,11.97,1.86,24.73-7.08,28.48c-8.94,3.76-20.27-2.9-25.3-14.88
							c-1.37-3.26-2.08-6.57-2.28-9.75L227.2,371.46z"/>
					</defs>
					<clipPath id="SVGID_16_">
						<use xlink:href="#SVGID_15_"  style="overflow:visible;"/>
					</clipPath>
					<g class="st28">
						<path class="st15" d="M260.25,349.99c0,0-19.59-0.38-26.16-5.57c0,0,5,12.83,21.63,16.88S260.25,349.99,260.25,349.99z"/>
					</g>
				</g>
				<g>
					<path class="st14" d="M249.64,351.91L249.64,351.91c17.79-0.35,31.94-15.05,31.59-32.85l-1.08-55.6l-64.44,1.26l1.08,55.6
						C217.14,338.11,231.85,352.26,249.64,351.91z"/>
				</g>
				<g>
					<path class="st14" d="M221.88,300.8c-2.76-5.41-8.39-8.07-12.57-5.94c-4.18,2.13-5.34,8.25-2.58,13.66
						c2.76,5.41,8.39,8.07,12.57,5.94C223.49,312.32,224.64,306.21,221.88,300.8z"/>
				</g>
				<g>
					<g>
						<g>
							<path class="st24" d="M249.59,299.59c0,0-3.3-8.19-17.01,0.23C232.59,299.82,244.86,308.07,249.59,299.59z"/>
						</g>
						<g>
							<path class="st20" d="M249.58,299.64c0-0.03,0.01-0.07,0.01-0.1c-0.2-0.43-1.92-3.87-7.13-3.49c-0.98,0.81-1.6,2.03-1.58,3.4
								c0.02,1.78,1.12,3.3,2.66,3.95C245.88,303.27,248.1,302.26,249.58,299.64z"/>
						</g>
						<g>
							<path class="st20" d="M232.59,300.36c-0.17,0-0.34-0.08-0.45-0.24c-0.17-0.25-0.1-0.58,0.15-0.75
								c0.3-0.2,7.48-4.99,13.11-3.67c2.02,0.47,3.59,1.68,4.67,3.58c0.15,0.26,0.06,0.59-0.2,0.74c-0.26,0.15-0.59,0.06-0.74-0.2
								c-0.92-1.63-2.26-2.65-3.97-3.06c-5.17-1.22-12.19,3.47-12.26,3.52C232.79,300.33,232.69,300.36,232.59,300.36z"/>
						</g>
					</g>
					<g>
						<g>
							<path class="st24" d="M278.89,298.8c0,0-2.95-7.32-15.19,0.21C263.7,299,274.67,306.37,278.89,298.8z"/>
						</g>
						<g>
							<path class="st20" d="M278.88,298.84c0-0.03,0.01-0.06,0.01-0.09c-0.18-0.39-1.72-3.45-6.37-3.12
								c-0.87,0.73-1.43,1.81-1.42,3.04c0.02,1.59,1,2.95,2.38,3.53C275.58,302.08,277.55,301.19,278.88,298.84z"/>
						</g>
						<g>
							<path class="st20" d="M263.7,299.54c-0.17,0-0.34-0.08-0.45-0.24c-0.17-0.25-0.1-0.58,0.15-0.75
								c0.27-0.18,6.7-4.47,11.75-3.29c1.82,0.43,3.24,1.51,4.21,3.22c0.15,0.26,0.06,0.59-0.2,0.74c-0.26,0.15-0.59,0.06-0.74-0.2
								c-0.82-1.44-2-2.35-3.52-2.7c-4.6-1.08-10.84,3.09-10.9,3.13C263.91,299.51,263.8,299.54,263.7,299.54z"/>
						</g>
					</g>
					<g>
						<g>
							<path class="st24" d="M243.86,330.38c0,0,6.61,11.07,20.79,4.12L243.86,330.38z"/>
						</g>
						<g>
							<path class="st20" d="M255.76,337.31c-8.34,0-12.32-6.57-12.37-6.65c-0.11-0.18-0.1-0.41,0.03-0.59
								c0.12-0.17,0.34-0.26,0.55-0.22l20.79,4.12c0.23,0.04,0.4,0.23,0.43,0.46c0.03,0.23-0.09,0.45-0.3,0.56
								C261.4,336.67,258.37,337.31,255.76,337.31z M245.08,331.18c1.94,2.41,7.62,7.7,17.79,3.52L245.08,331.18z"/>
						</g>
					</g>
					<g>
						<path class="st20" d="M260.75,322.06c-1.22,0-2.59-0.13-4.11-0.4c-0.59-0.1-0.98-0.66-0.88-1.25c0.1-0.59,0.67-0.98,1.25-0.88
							c4.06,0.72,6.13,0.26,7.15-0.25c0.07-0.03,0.1-0.13,0.11-0.2c0.01-0.08,0-0.19-0.07-0.25c-0.76-0.67-1.74-1.58-2.92-2.71
							c-3.6-3.47-3.27-12.09-3.26-12.46c0.03-0.6,0.54-1.04,1.13-1.03c0.6,0.03,1.06,0.53,1.03,1.13c-0.09,2.22,0.19,8.49,2.6,10.81
							c1.15,1.11,2.11,2,2.85,2.65c0.6,0.52,0.89,1.33,0.79,2.14c-0.1,0.81-0.58,1.5-1.28,1.85
							C264,321.78,262.53,322.06,260.75,322.06z"/>
					</g>
					<g>
						<path class="st20" d="M231.55,293.4c-0.52,0-0.97-0.37-1.06-0.9c-0.1-0.59,0.29-1.15,0.88-1.25l17.79-3.08
							c0.59-0.1,1.15,0.29,1.25,0.88c0.1,0.59-0.29,1.15-0.88,1.25l-17.79,3.08C231.67,293.4,231.61,293.4,231.55,293.4z"/>
					</g>
					<g>
						<path class="st20" d="M263.85,292.2c-0.54,0-1.01-0.41-1.07-0.96c-0.06-0.59,0.37-1.13,0.96-1.19l13.81-1.49
							c0.59-0.07,1.13,0.36,1.19,0.96c0.06,0.59-0.37,1.13-0.96,1.19l-13.81,1.49C263.93,292.19,263.89,292.2,263.85,292.2z"/>
					</g>
					<g class="st29">
						<path class="st16" d="M243.06,320.1c-1.8,2.89-6.67,3.12-10.86,0.5c-4.2-2.62-6.13-7.08-4.33-9.98
							c1.8-2.89,6.67-3.12,10.86-0.5C242.92,312.74,244.86,317.2,243.06,320.1z"/>
					</g>
				</g>
				<g>
					<path class="st13" d="M251.49,265.68c0,0,25.33-1.64,30.64,22.32c0,0,26.33-17.78,6.74-38.58C263.99,223,208,251.99,208,251.99
						s-15.13,29.1,13.75,54.65C221.75,306.64,252,295.31,251.49,265.68z"/>
				</g>
			</g>
			<g>
				<g>
					<g>
						<path class="st17" d="M791.33,1007.98c0,0-6.51,20.81-20.86,28.78c0,0,3.71,35.06,35.31,21.01c15.36-6.83,18.23-19,18.23-19
							s-2.43-10.65,4.48-24.12C834.49,1002.93,791.33,1007.98,791.33,1007.98z"/>
					</g>
					<g>
						<g>
							
								<rect x="768.68" y="1045.44" transform="matrix(0.8084 -0.5886 0.5886 0.8084 -471.8944 658.8051)" class="st0" width="14.9" height="17.8"/>
						</g>
						<g>
							<path class="st30" d="M823.72,1035.75c0,0,7.35,11.22,6.8,25.16c-0.28,6.93-2.66,14.15-2.66,14.15s-93.02,3.4-102.67-1.55
								c-3.87-1.98-5.38-13.51-5.38-13.51l54.03-25.45l2.34,2.9c2.29,2.84,3.07,6.6,2.12,10.12l-2.17,7.97l14.32-1.85
								C790.44,1053.68,816.68,1052.06,823.72,1035.75z"/>
						</g>
						<g>
							<g>
								<path class="st19" d="M829.67,1067.82c-0.79,4.1-1.81,7.24-1.81,7.24s-93.02,3.4-102.67-1.55
									c-1.86-0.95-3.17-4.12-4.04-7.15C733.46,1070.92,817.01,1068.25,829.67,1067.82z"/>
							</g>
						</g>
					</g>
				</g>
				<g>
					<g>
						<path class="st17" d="M943.26,1083.95c-1.11,7.55,3.81,14.68,11.19,16.59c2.28,0.59,4.53,1.17,6.05,1.57
							c1.31,0.34,2.65,0.56,4,0.61c16.25,0.58,26.31-2.48,32.56-11.1c0.03-0.01,0.05-0.03,0.08-0.04c0,0,0-0.01,0-0.01
							c0,0,0.01,0,0.01-0.01c0.01-0.06,0.02-0.11,0.03-0.17c3.53-7.8-0.65-40.1-2.5-54.82c-0.37-2.97-1.53-5.95-2.97-10.62
							c-1.31-4.25-0.68-14.11,0.22-21.41c-10-11.82-38.67-1.78-38.67-1.78l1.73,16.84c0.51,4.9-0.09,9.85-1.7,14.5
							c-0.67,1.93-1.37,4.22-1.96,6.72c-1.03,4.4-1.27,11.27-1.63,13.31C949.13,1057.32,943.38,1083.16,943.26,1083.95z
							 M997.92,1081.14c0.18-0.1,0.34-0.19,0.5-0.27C998.26,1080.96,998.11,1081.04,997.92,1081.14
							C997.61,1081.32,997.61,1081.32,997.92,1081.14z M998.77,1080.7c0,0.01,0,0.01,0,0.02c0,0,0,0,0,0
							C998.77,1080.71,998.77,1080.7,998.77,1080.7L998.77,1080.7z M944.02,1094.71C944.02,1094.71,944.03,1094.71,944.02,1094.71
							c0.01,0.02,0.01,0.03,0.02,0.07c0.02,0.08,0.02,0.05,0.04,0.16c0,0.01-0.03-0.11-0.04-0.16
							C944.04,1094.74,944.03,1094.73,944.02,1094.71z"/>
					</g>
					<g>
						<path class="st0" d="M995.3,1047.79c0,0-8.61,7.71-22.67,8.16c-14.05,0.45-21.99-7.48-21.99-7.48l2.49,22.44l28.79,0.45
							l11.33-4.31L995.3,1047.79z"/>
					</g>
					<g>
						<defs>
							<path id="SVGID_17_" d="M943.26,1083.95c-1.11,7.55,3.81,14.68,11.19,16.59c2.28,0.59,4.53,1.17,6.05,1.57
								c1.31,0.34,2.65,0.56,4.01,0.61c16.24,0.58,26.3-2.49,32.55-11.1c0.03-0.01,0.05-0.03,0.08-0.04c0,0,0-0.01,0-0.01
								c0,0,0.01,0,0.01-0.01c0.01-0.06,0.02-0.11,0.03-0.17c4.25-9.38-2.25-53.96-3.01-59.41c-0.6-4.4-0.22-12.92-0.74-16.83
								c-0.84-6.23-0.79-5.54-1.5-10.62c-10-11.82-36.57-3.19-38.67-1.78c-1.09,0.69-1.92,1.55-2.23,2.67
								c-0.32,1.18-0.53,2.37-0.66,3.55c-0.64,5.06,0.38,10.14,1.19,15.47c0.6,4.1-0.89,24.16-1.86,29.68
								C949.13,1057.32,943.38,1083.16,943.26,1083.95z M998.77,1080.7c0,0.01,0,0.01,0,0.02c0,0,0,0,0,0
								C998.77,1080.71,998.77,1080.7,998.77,1080.7L998.77,1080.7z M944.02,1094.71C944.02,1094.71,944.03,1094.71,944.02,1094.71
								c0.01,0.02,0.01,0.03,0.02,0.07c0.02,0.08,0.02,0.05,0.04,0.16c0,0.01-0.03-0.11-0.04-0.16
								C944.04,1094.74,944.03,1094.73,944.02,1094.71z"/>
						</defs>
						<clipPath id="SVGID_18_">
							<use xlink:href="#SVGID_17_"  style="overflow:visible;"/>
						</clipPath>
						<g class="st31">
							<path class="st30" d="M987.82,1058.89c0,0-3.63-9.29-16.32-9.75c-12.94-0.46-14.96,11.33-14.96,11.33s-6.57-16.55-5.67-22.67
								c0.91-6.12-15.87,58.71-15.87,58.71l22.89,10.88l45.56-2.95c0,0,4.08-28.11,3.63-29.01c-0.45-0.91-7.25-36.49-7.25-36.49
								l-4.31-5.21C995.53,1033.73,993.26,1055.27,987.82,1058.89z"/>
						</g>
					</g>
					<g>
						<g>
							<path class="st19" d="M943.71,1081.8c1.46,4.95,5.46,8.99,10.74,10.36c2.28,0.59,4.53,1.17,6.05,1.57
								c1.31,0.35,2.65,0.56,4.01,0.61c16.24,0.58,26.3-2.49,32.55-11.1c0.03-0.01,0.05-0.03,0.08-0.04c0,0,0-0.01,0-0.01
								c0,0,0.01,0,0.01-0.01c0.01-0.06,0.02-0.11,0.03-0.17c0.92-2.03,1.38-5.92,1.53-10.82c0.2,8.71-0.13,16.12-1.53,19.21
								c-0.01,0.06-0.02,0.11-0.03,0.17c0,0-0.01,0-0.01,0.01c0,0,0,0.01,0,0.01c-0.03,0.01-0.05,0.03-0.08,0.04
								c-6.25,8.62-16.31,11.68-32.55,11.1c-1.36-0.05-2.7-0.26-4.01-0.61c-1.52-0.4-3.77-0.98-6.05-1.57
								c-7.38-1.91-12.3-9.04-11.19-16.59C943.28,1083.82,943.45,1083.03,943.71,1081.8z"/>
						</g>
					</g>
				</g>
				<g>
					<g>
						<g>
							<path class="st32" d="M885.17,545.1c0,0,14.13,65.97-0.98,139.19c-12.85,62.23-36.36,120.64-36.36,120.64
								s4.51,62.72,3.79,75.85c-2.82,51.84-16.69,135.02-16.69,135.02l-49.3-4.55c0,0-14.52-161.45-9.86-245.76
								c3.22-58.29,49.55-239,49.55-239L885.17,545.1z"/>
						</g>
						<g>
							<defs>
								<path id="SVGID_19_" d="M885.17,545.1c0,0,14.13,65.97-0.98,139.19c-12.85,62.23-36.36,120.64-36.36,120.64
									s4.51,62.72,3.79,75.85c-2.82,51.84-16.69,135.02-16.69,135.02l-49.3-4.55c0,0-14.52-161.45-9.86-245.76
									c3.22-58.29,49.55-239,49.55-239L885.17,545.1z"/>
							</defs>
							<clipPath id="SVGID_20_">
								<use xlink:href="#SVGID_19_"  style="overflow:visible;"/>
							</clipPath>
							<g class="st33">
								<path class="st6" d="M883.47,634.01c-6.43,0-12.47-0.74-17.68-2.03c-2.46,16.28-21.31,139.33-34.17,170.4
									c0,0,2.3,173.35-9.18,214.67c-11.48,41.33,27.55,27.55,27.55,27.55l35.59-169.9l9.53-241.54
									C891.46,633.71,887.54,634.01,883.47,634.01z"/>
							</g>
						</g>
						<g>
							<g>
								<path class="st11" d="M647.87,445.27c-4.18,6.86-5.75,13.52-3.51,14.89c2.24,1.37,7.45-3.08,11.63-9.94
									c4.18-6.86,5.75-13.52,3.51-14.89C657.26,433.96,652.05,438.41,647.87,445.27z"/>
							</g>
							<g>
								<path class="st13" d="M682.39,460.94c1.37-5.55,2.02-9.95,2.28-15.16c-7.14-1.14-13.75-2.6-19.75-4.52
									c-6.04-1.94-13.75-5.09-22.36-10.54c-2.84-1.8-5.22-4.24-6.88-7.16c-3.39-5.98-10.18-17.18-12.01-22.7
									c0,0-2.59-7.16-3.44-7.86c-1.29-1.06-8.4-0.33-10.11-0.38c-0.01,0-16.78-1.2-18.14-1.05c-1.41,0.15-7.13,2.05-9.63,3.17
									c-1.57,0.52-3.15,1.07-4.67,1.66c-0.61,0.23-1.21,0.47-1.78,0.71c-1.08,0.44-2.07,0.88-2.96,1.3
									c-1.1,0.44-2.13,0.9-2.98,1.35c-3.38,1.8,0.73,4.92,2.18,5.38c1.76,0.55,8.87-1.55,15.69-2.13
									c0.51-0.04,1.02-0.08,1.52-0.11c-2.79,0.84-11.07,3.34-12.63,3.93c-1.88,0.71-7.98,7.59-7.8,8.52
									c0.18,0.93,5.3,2.75,11.82-0.52c6.51-3.28,11.24-3.45,11.24-3.45s-11.21,7.45-12.49,8.48c-1.28,1.03-4.22,5-3.26,5.78
									c0.96,0.78,3.96,2.32,7.29,0.72c0,0,3.56,2.69,6.18,2.63c2.62-0.05,9.29-2.2,13.81-0.14c0,0,13.29,16.18,18.68,17.95
									c1.11,0.37,2.19,0.63,3.22,0.8c2.26,0.38,4.41,1.17,6.37,2.36c9.9,6,29.1,14.09,48.51,21.7
									C680.73,468.05,681.52,464.47,682.39,460.94z M590.58,402.83c6.27-0.25,11.65,0.42,11.65,0.42s0.62,4.53,1.42,9.31
									C596.97,407.57,591.79,403.72,590.58,402.83z"/>
							</g>
							<g>
								<path class="st10" d="M845.66,389.83c-6.2-8.63-18.59-9.84-26.45-2.7c-13.85,12.58-28.13,25.28-38.25,36.77
									c0,0-21.59,22.91-33.52,35.05c-19.13-7.08-41.57-9.14-50.48-11.16c-13.36-3.02-32-11.04-37.77-12.7
									c-1.3,9.08-5.73,17.41-12.52,23.57l-1.79,1.63c16.72,8.4,66.98,32.67,90.97,39.22c17.97,4.9,32.04-2.95,38.58-7.79
									c15.36-9.02,41.47-28.47,76.82-69.56C859.07,413.06,852.95,399.98,845.66,389.83z"/>
							</g>
							<g>
								<defs>
									<path id="SVGID_21_" d="M845.66,389.83c-6.2-8.63-18.59-9.84-26.45-2.7c-13.85,12.58-28.13,25.28-38.25,36.77
										c0,0-21.59,22.91-33.52,35.05c-19.13-7.08-41.57-9.14-50.48-11.16c-13.36-3.02-32-11.04-37.77-12.7
										c-1.3,9.08-5.73,17.41-12.52,23.57l-1.79,1.63c16.72,8.4,66.98,32.67,90.97,39.22c17.97,4.9,32.04-2.95,38.58-7.79
										c15.36-9.02,41.47-28.47,76.82-69.56C859.07,413.06,852.95,399.98,845.66,389.83z"/>
								</defs>
								<clipPath id="SVGID_22_">
									<use xlink:href="#SVGID_21_"  style="overflow:visible;"/>
								</clipPath>
								<g class="st34">
									<path class="st11" d="M825.62,359.89c-0.73,1.1-1.48,2.2-2.23,3.3c11.11,7.86,20.57,27.07,14.19,40.16
										c-23.72,48.73-44.02,74.19-56.58,86.83c-5.08,6.34-16.7,17.52-35.32,17.36c-2.31-0.02-4.88-0.13-7.65-0.32
										c5.84,0.78,11.13,1.33,15.5,1.51c18.61,0.78,30.58-10.01,35.87-16.19c12.97-12.22,52.87-28.42,78.19-76.35
										C877.46,397.51,829.14,362.15,825.62,359.89z"/>
								</g>
							</g>
							<g>
								<g>
									
										<rect x="584.53" y="375.08" transform="matrix(-0.9314 0.364 -0.364 -0.9314 1295.1282 581.9002)" class="st32" width="16.39" height="75.85"/>
								</g>
								<g>
									<path class="st32" d="M594.59,464.88c3.45,8.82,13.4,13.18,22.22,9.73c8.82-3.45,13.18-13.4,9.73-22.22
										c-3.45-8.82-13.4-13.18-22.22-9.73C595.5,446.11,591.14,456.05,594.59,464.88z M599,463.15l1.87-12.27l11.56-4.52
										l9.69,7.75l-1.87,12.27l-11.56,4.52L599,463.15z"/>
								</g>
								<g>
									<path class="st32" d="M561.27,355.39l-1.76,11.54l11.06,8.85l13.19-5.16l2.13-14l-9.12-7.29
										c5.97,0.81,11.33,4.75,13.68,10.75c3.45,8.82-0.91,18.77-9.73,22.22c-8.82,3.45-18.77-0.91-22.22-9.73
										C556.16,366.56,557.43,360.03,561.27,355.39z"/>
								</g>
							</g>
							<g>
								<g>
									<path class="st13" d="M625.45,424.1c0,0-10.83,0.2-15.42-3.86c-3.59-3.18-5.02-4.97-5.02-4.97s-7.45-2.56-10.02-2.76
										c-2.57-0.2-6.91-0.19-9.13-1.88c-2.22-1.69-4.5-5.61-3.73-7.69c0.77-2.07,12.16,1.16,13.7,1.32
										c1.54,0.16,6.99,2.11,13.41,1.17C625.71,403,625.45,424.1,625.45,424.1z"/>
								</g>
							</g>
							<g>
								<g>
									<path class="st20" d="M625.14,424.54c-1.86,0-11.13-0.2-15.39-3.97c-3.15-2.79-4.64-4.5-4.99-4.92
										c-0.95-0.32-7.48-2.52-9.79-2.7c-0.36-0.03-0.77-0.05-1.19-0.08c-2.6-0.15-6.16-0.36-8.18-1.89
										c-2.44-1.86-4.71-5.92-3.87-8.18c0.61-1.64,4.82-1.04,11.9,0.57c1.08,0.24,1.93,0.44,2.26,0.47
										c0.37,0.04,0.9,0.16,1.62,0.33c2.36,0.55,6.76,1.56,11.68,0.84l0.13,0.86c-5.09,0.75-9.58-0.29-12-0.85
										c-0.67-0.16-1.2-0.28-1.52-0.31c-0.37-0.04-1.21-0.23-2.36-0.49c-2.58-0.58-10.43-2.36-10.9-1.11
										c-0.68,1.84,1.44,5.56,3.59,7.19c1.8,1.37,5.21,1.57,7.7,1.72c0.43,0.03,0.84,0.05,1.2,0.08c2.59,0.2,9.82,2.68,10.13,2.78
										l0.12,0.04l0.08,0.1c0.01,0.02,1.46,1.81,4.97,4.92c4.4,3.9,15.02,3.76,15.12,3.75l0.02,0.87
										C625.42,424.54,625.31,424.54,625.14,424.54z"/>
								</g>
							</g>
						</g>
						<g>
							<g>
								<g>
									<path class="st32" d="M997.8,915.1c0.35-80.22-12.71-224.25-25.83-283.75c-8.44-38.25-18.92-89.34-18.92-89.34
										l-41.34,11.17l0.17-7.04l-71.92-1.73l-0.63,26.23c-0.62,25.89,17.31,47.92,41.66,53.36c0.57,3.55,1.24,7.13,2.03,10.71
										c9.22,41.91,34.57,177.99,42.48,208.86c7.91,30.86,21.74,180.97,21.74,180.97l50.67-2.69
										C997.9,1021.85,997.45,995.31,997.8,915.1z"/>
								</g>
							</g>
							<g>
								<g>
									<g>
										<path class="st6" d="M947.23,1024.99c-0.23,0-0.42-0.17-0.44-0.4c-0.14-1.5-13.92-150.43-21.73-180.9
											c-4.57-17.83-14.8-69.93-24.68-120.31c-7.15-36.43-13.9-70.85-17.8-88.56c-0.05-0.24,0.1-0.48,0.34-0.53
											c0.24-0.05,0.48,0.1,0.53,0.34c3.9,17.72,10.65,52.14,17.8,88.58c9.89,50.37,20.11,102.46,24.67,120.26
											c7.62,29.74,20.89,171.73,21.71,180.62l49.82-2.64c-0.06-3.74-0.42-32.38-0.1-106.34c0.36-80.9-12.67-224.06-25.82-283.65
											c-8.34-37.82-18.81-88.84-18.92-89.35c-0.05-0.24,0.1-0.47,0.35-0.52c0.23-0.05,0.47,0.11,0.52,0.35
											c0.11,0.51,10.58,51.52,18.91,89.34c13.16,59.64,26.2,202.9,25.84,283.85c-0.35,79.29,0.1,106.48,0.1,106.75
											c0,0.24-0.18,0.44-0.42,0.45l-50.67,2.69C947.25,1024.99,947.24,1024.99,947.23,1024.99z"/>
									</g>
								</g>
							</g>
						</g>
						<g>
							<path class="st35" d="M943.08,541.68l0.44,13.38c0,0-30.05,10.36-65.1,6.08c-35.05-4.28-45.27-11.58-45.27-11.58l4.19-11.95
								C837.34,537.61,867.66,547.89,943.08,541.68z"/>
						</g>
						<g>
							<g>
								<path class="st36" d="M840.82,373.03c-3.23,1.98-20.48,13.24-20.48,13.24s3.03,34.75,4.35,43.53
									c1.37,9.06-4.18,58.73-8.51,77.43c-4.35,18.7-12.67,37.33-8.4,46.02c3.33,6.78,10.32,8.63,10.32,8.63s-5.36,8.02-5.25,8.06
									c9.22,3.23,43.15,17.09,81.44,15.23c40.35-1.97,64.33-16.34,64.33-16.34l-1.44-9.76c0,0,8.89-6.77,10.65-12.85
									c3.53-12.2-1.84-51.07-7.22-82.75c-5.37-31.7-5.29-73.08,8.56-85.88c0,0-0.4-0.41-1.03-1.07
									c-6.18-6.37-13.76-11.22-22.16-14.07C924.99,355.33,883.16,347.08,840.82,373.03z"/>
							</g>
							<g>
								<defs>
									<path id="SVGID_23_" d="M840.82,373.03c-3.23,1.98-20.48,13.24-20.48,13.24s3.03,34.75,4.35,43.53
										c1.37,9.06-4.18,58.73-8.51,77.43c-4.35,18.7-12.67,37.33-8.4,46.02c3.33,6.78,10.32,8.63,10.32,8.63s-5.36,8.02-5.25,8.06
										c9.22,3.23,43.15,17.09,81.44,15.23c40.35-1.97,64.33-16.34,64.33-16.34l-1.44-9.76c0,0,8.89-6.77,10.65-12.85
										c3.53-12.2-1.84-51.07-7.22-82.75c-5.37-31.7-5.29-73.08,8.56-85.88c0,0-0.4-0.41-1.03-1.07
										c-6.18-6.37-13.76-11.22-22.16-14.07C924.99,355.33,883.16,347.08,840.82,373.03z"/>
								</defs>
								<clipPath id="SVGID_24_">
									<use xlink:href="#SVGID_23_"  style="overflow:visible;"/>
								</clipPath>
								<g class="st37">
									<g>
										<g>
											<path class="st38" d="M808.94,557.53c0,0,12.98,8.53,38.99,8.92c0,0-32.43,1.9-41.8-1.78
												C796.75,561,808.94,557.53,808.94,557.53z"/>
										</g>
										<g>
											<path class="st38" d="M962.53,556.11c0,0-12.8,8.8-38.79,9.75c0,0,32.46,1.21,41.75-2.67
												C974.79,559.31,962.53,556.11,962.53,556.11z"/>
										</g>
									</g>
									<g>
										<path class="st38" d="M975.2,479.08c0,0-64.95-74.18-21.78-109.96C1001,329.69,975.2,479.08,975.2,479.08z"/>
									</g>
								</g>
							</g>
							<g>
								<defs>
									<path id="SVGID_25_" d="M840.82,373.03c-3.23,1.98-20.48,13.24-20.48,13.24s3.03,34.75,4.35,43.53
										c1.37,9.06-4.18,58.73-8.51,77.43c-4.35,18.7-12.67,37.33-8.4,46.02c3.33,6.78,10.32,8.63,10.32,8.63s-5.36,8.02-5.25,8.06
										c9.22,3.23,43.15,17.09,81.44,15.23c40.35-1.97,64.33-16.34,64.33-16.34l-1.44-9.76c0,0,8.89-6.77,10.65-12.85
										c3.53-12.2-1.84-51.07-7.22-82.75c-5.37-31.7-5.29-73.08,8.56-85.88c0,0-0.4-0.41-1.03-1.07
										c-6.18-6.37-13.76-11.22-22.16-14.07C924.99,355.33,883.16,347.08,840.82,373.03z"/>
								</defs>
								<clipPath id="SVGID_26_">
									<use xlink:href="#SVGID_25_"  style="overflow:visible;"/>
								</clipPath>
								<g class="st39">
									<g>
										<path class="st24" d="M922.08,352.39l-0.06-0.75c0.02-1.85-0.12-3.63-0.4-5.36l-5.24-70.5l-26.85,5.39
											c0,0-9.22,66.41-9.91,67.79c-7.15,14.14-1.36,30.22,9.69,34.47c11.04,4.25,24.61-4.29,30.3-19.08
											c1.55-4.03,2.29-8.09,2.42-11.97L922.08,352.39z"/>
									</g>
								</g>
							</g>
						</g>
						<g>
							<g>
								<path class="st13" d="M917.14,352.33l-0.05-0.62c0.02-1.52-0.1-2.99-0.33-4.41l-4.31-58.01l-22.1,4.44
									c0,0-7.58,54.65-8.16,55.78c-5.88,11.64-1.12,24.87,7.97,28.37c9.09,3.5,20.25-3.53,24.94-15.7c1.28-3.32,1.89-6.65,2-9.85
									L917.14,352.33z"/>
							</g>
							<g>
								<defs>
									<path id="SVGID_27_" d="M917.14,352.33l-0.05-0.62c0.02-1.52-0.1-2.99-0.33-4.41l-4.31-58.01l-22.1,4.44
										c0,0-7.62,54.56-8.16,55.78c-5.22,11.95-1.12,24.87,7.97,28.37c9.09,3.5,20.25-3.53,24.94-15.7c1.28-3.32,1.89-6.65,2-9.85
										L917.14,352.33z"/>
								</defs>
								<clipPath id="SVGID_28_">
									<use xlink:href="#SVGID_27_"  style="overflow:visible;"/>
								</clipPath>
								<g class="st40">
									<path class="st20" d="M883.33,331.79c0,0,19.65-0.97,26.08-6.39c0,0-4.63,13.03-21.19,17.6
										C871.66,347.57,883.33,331.79,883.33,331.79z"/>
								</g>
							</g>
						</g>
						<g>
							<g>
								<path class="st13" d="M878.54,334.34L878.54,334.34c-17.23-4.74-27.36-22.54-22.62-39.77l14.8-53.83l62.39,17.16
									l-14.8,53.83C913.57,328.96,895.77,339.08,878.54,334.34z"/>
							</g>
							<g>
								<path class="st13" d="M918.18,291.47c4.02-4.58,10.15-5.78,13.7-2.67c3.54,3.11,3.16,9.35-0.87,13.93
									c-4.02,4.58-10.15,5.78-13.7,2.67C913.77,302.29,914.16,296.06,918.18,291.47z"/>
							</g>
							<g>
								<path class="st20" d="M941.17,269.16c-1.02-9.27-3.14-19.99-16.14-26.79c0,0-7.49-16.35-24.33-14.18
									c0,0-7.87-8.27-15.14-4.86c-7.28,3.42-11.03,8.95-11.03,8.95s-21.06,6.28-12.79,41.17c0,0,2.31-8.74,3.79-13.78
									c0.73-2.5,2.1-5.58,4.05-7.31c1.26-1.12,2.81-2.12,4.51-2.33c4.29-0.55,5.77,5.23,10.9,7.18
									c5.13,1.95,23.05,0.08,27.77,4.26c4.2,3.72,10.37,11.81,7.73,25.67c-0.32,1.67-0.23,3.4,0.33,5.01
									c0.01,0.03,0.02,0.06,0.03,0.09c0.71,2.07,3.46,2.41,4.71,0.62c2.3-3.3,5.03-4.85,7.97-1.71
									C933.51,291.14,942.19,278.43,941.17,269.16z"/>
							</g>
							<g>
								<g>
									<g>
										<path class="st24" d="M892.45,284.46c0,0,5.86-7.13,16.86,5.56C909.32,290.02,894.5,294.39,892.45,284.46z"/>
									</g>
									<g>
										<path class="st20" d="M892.45,284.52c0.01-0.03,0.01-0.07,0.02-0.1c0.33-0.37,3.13-3.25,8.19-1.24
											c0.72,1.12,0.96,2.52,0.51,3.88c-0.58,1.77-2.15,2.93-3.89,3.1C894.99,289.29,893.1,287.59,892.45,284.52z"/>
									</g>
									<g>
										<path class="st20" d="M909.32,290.57c-0.16,0-0.32-0.07-0.42-0.2c-0.05-0.07-5.58-6.94-11.12-7.35
											c-1.83-0.13-3.5,0.47-4.93,1.8c-0.22,0.2-0.56,0.19-0.76-0.03c-0.2-0.22-0.19-0.56,0.03-0.76
											c1.66-1.55,3.59-2.25,5.75-2.09c6.01,0.45,11.65,7.46,11.89,7.76c0.19,0.23,0.15,0.57-0.09,0.76
											C909.55,290.53,909.44,290.57,909.32,290.57z"/>
									</g>
								</g>
								<g>
									<g>
										<path class="st24" d="M863.52,274.49c0,0,5.23-6.37,15.07,4.97C878.58,279.46,865.35,283.36,863.52,274.49z"/>
									</g>
									<g>
										<path class="st20" d="M863.51,274.54c0.01-0.03,0.01-0.06,0.02-0.09c0.3-0.33,2.79-2.9,7.32-1.11
											c0.64,1,0.86,2.25,0.46,3.47c-0.52,1.58-1.92,2.62-3.48,2.77C865.79,278.8,864.1,277.29,863.51,274.54z"/>
									</g>
									<g>
										<path class="st20" d="M878.58,280c-0.16,0-0.32-0.07-0.42-0.2c-0.05-0.06-4.97-6.18-9.9-6.55
											c-1.62-0.12-3.1,0.42-4.36,1.6c-0.22,0.2-0.56,0.19-0.76-0.03c-0.2-0.22-0.19-0.56,0.03-0.76
											c1.5-1.39,3.23-2.03,5.18-1.88c5.4,0.4,10.45,6.69,10.66,6.95c0.19,0.23,0.15,0.57-0.09,0.76
											C878.82,279.96,878.7,280,878.58,280z"/>
									</g>
								</g>
								<g>
									<g>
										<path class="st24" d="M884.45,314.16c0,0-9.21,8.82-17.13-2.05L884.45,314.16z"/>
									</g>
									<g>
										<path class="st20" d="M876.42,318.08c-0.26,0-0.53-0.01-0.8-0.03c-3.24-0.27-6.18-2.16-8.73-5.62
											c-0.13-0.17-0.14-0.41-0.03-0.59c0.11-0.19,0.31-0.29,0.53-0.26l17.13,2.05c0.21,0.02,0.38,0.17,0.45,0.36
											c0.07,0.2,0.01,0.42-0.14,0.56C884.67,314.7,881.13,318.08,876.42,318.08z M868.56,312.8c2.16,2.55,4.56,3.96,7.14,4.17
											c3.23,0.28,6.03-1.4,7.43-2.43L868.56,312.8z"/>
									</g>
								</g>
								<g>
									<path class="st20" d="M876.6,304.23c-0.07,0-0.13-0.01-0.2-0.02c-3.88-0.74-6.6-1.94-8.1-3.57
										c-0.54-0.59-0.75-1.43-0.56-2.24c0.2-0.82,0.77-1.48,1.53-1.77c0.96-0.36,2.23-0.88,3.77-1.53
										c3.23-1.38,5.83-7.41,6.56-9.62c0.19-0.57,0.79-0.87,1.36-0.69c0.57,0.19,0.87,0.8,0.69,1.36
										c-0.12,0.36-2.98,8.89-7.77,10.93c-1.57,0.67-2.86,1.2-3.85,1.57c-0.1,0.04-0.16,0.15-0.19,0.25
										c-0.01,0.04-0.04,0.19,0.05,0.28c0.81,0.88,2.66,2.1,6.91,2.91c0.59,0.11,0.97,0.68,0.86,1.26
										C877.56,303.86,877.11,304.23,876.6,304.23z"/>
								</g>
								<g>
									<path class="st20" d="M913.44,282.03c-0.09,0-0.18-0.01-0.28-0.04l-18.24-4.78c-0.58-0.15-0.92-0.74-0.77-1.32
										c0.15-0.58,0.74-0.92,1.32-0.77l18.24,4.78c0.58,0.15,0.92,0.74,0.77,1.32C914.36,281.71,913.92,282.03,913.44,282.03z"/>
								</g>
								<g>
									<path class="st20" d="M881.24,271.69c-0.1,0-0.2-0.01-0.29-0.04l-13.97-3.92c-0.58-0.16-0.91-0.76-0.75-1.33
										c0.16-0.58,0.76-0.91,1.33-0.75l13.97,3.92c0.58,0.16,0.91,0.76,0.75,1.33C882.15,271.37,881.72,271.69,881.24,271.69z"/>
								</g>
								<g class="st29">
									<path class="st25" d="M892.97,306.98c1.37,3.29,6.34,4.34,11.11,2.36c4.77-1.98,7.52-6.26,6.15-9.55
										c-1.37-3.29-6.34-4.34-11.11-2.36C894.36,299.42,891.6,303.69,892.97,306.98z"/>
								</g>
							</g>
						</g>
						<g>
							<g>
								<path class="st11" d="M1031.72,583c-8.09-1.53-15.09,1.29-15.54,3.7c-0.46,2.41,7.15,5.47,14.09,6.16
									c8.2,0.81,14.83-0.32,15.29-2.73C1046.01,587.73,1039.82,584.53,1031.72,583z"/>
							</g>
							<g>
								<g>
									<path class="st13" d="M1038.58,629.43c0,0-1.9,4.1-2.5,5.17c-0.61,1.07-4.5,3.71-5.53,4.81c-1.03,1.1-1.89,5.03-0.58,6.65
										c0,0-2.4,2.57-2.35,5.21c0.05,2.64,2.05,3.53,2.51,3.35c0.46-0.18,4.33-3.81,6.53-6.34c2.2-2.52,6.56-17.38,5.45-18.33
										S1038.58,629.43,1038.58,629.43z"/>
								</g>
								<g>
									<path class="st20" d="M1029.98,654.88c-0.28,0-0.65-0.13-1.01-0.37c-0.46-0.31-1.54-1.24-1.58-3.21
										c-0.04-2.38,1.78-4.65,2.29-5.23c-1.25-1.82-0.31-5.71,0.7-6.79c0.44-0.47,1.35-1.19,2.32-1.95
										c1.33-1.04,2.84-2.23,3.17-2.82c0.59-1.05,2.48-5.12,2.49-5.16c0.05-0.11,0.18-0.16,0.29-0.11
										c0.11,0.05,0.16,0.18,0.11,0.29c-0.08,0.17-1.91,4.12-2.51,5.19c-0.38,0.67-1.85,1.83-3.28,2.95
										c-0.96,0.75-1.86,1.46-2.27,1.9c-0.96,1.03-1.81,4.83-0.57,6.36c0.07,0.09,0.07,0.21-0.01,0.29
										c-0.02,0.03-2.34,2.54-2.29,5.06c0.03,1.76,0.98,2.58,1.38,2.85c0.44,0.29,0.76,0.32,0.83,0.29
										c0.42-0.18,4.26-3.78,6.44-6.28c0.08-0.09,0.22-0.1,0.31-0.02c0.09,0.08,0.1,0.22,0.02,0.31c-2.07,2.38-6.06,6.18-6.61,6.4
										C1030.14,654.87,1030.07,654.88,1029.98,654.88z"/>
								</g>
								<g>
									<path class="st20" d="M1030.09,646.41c-0.07,0-0.14-0.03-0.18-0.09c-0.07-0.1-0.05-0.24,0.05-0.31
										c0.04-0.03,4.3-3.09,6.75-6.51c0.07-0.1,0.21-0.12,0.31-0.05c0.1,0.07,0.12,0.21,0.05,0.31c-2.49,3.48-6.81,6.58-6.85,6.61
										C1030.18,646.4,1030.13,646.41,1030.09,646.41z"/>
								</g>
								<g>
									<path class="st13" d="M1048.69,610.55c0,0,3.8,6.11,3.71,7.12c-0.09,1.01-1.89,4.49-1.89,4.49s0.39,15.1-0.05,16.95
										c-0.44,1.85-8.4,14.88-10.39,16.66c-1.98,1.78-4.59,2.22-4.59,2.22L1048.69,610.55z"/>
								</g>
								<g>
									<path class="st13" d="M1021.76,588.33c0,0-5.07,2.58-6.96,11.25c-1.23,5.66,1.15,17.39,1.53,18.55
										c0.38,1.16-2.12,13.14-3.37,16.26c-1.25,3.12,5.01,4.83,7.77,1.61c3.42-3.99,4.79-10.84,4.76-12.71
										c-0.02-1.88,2.13-7.82,3.49-8.24c1.36-0.43,6.1,5.04,6.75,6.45s3.98,14.21,3.64,15.44c-0.34,1.23-1.74,6.37-2.44,7.37
										c-0.7,1-5.64,4.88-5.61,8.12c0.03,3.23,0.88,7.73,3.35,6.21c2.46-1.52,8.61-10.91,9.29-12.01c0.68-1.1,3.6-9.1,3.76-11.55
										c0.16-2.44,1.55-14.68,1.88-15.49c0.33-0.81,1.48-3.48,1-5.04c-0.47-1.56-2.21-4.49-2.21-4.49s-5.52-13.94-11.73-22.62
										C1030.46,578.75,1021.76,588.33,1021.76,588.33z"/>
								</g>
								<g>
									<path class="st13" d="M1012.84,565.67c0,0,9.26,20.15,8.22,25.68l21.12,7.19c0,0,0.68-14.14,1.98-25.77L1012.84,565.67z"/>
								</g>
								<g>
									<path class="st20" d="M1033.75,659.16c-0.24,0-0.47-0.06-0.69-0.18c-1.4-0.77-1.93-4.02-1.95-6.56
										c-0.02-2.57,2.87-5.43,4.6-7.14c0.5-0.49,0.89-0.88,1.05-1.1c0.3-0.43,0.96-2.03,2.38-7.19l0.03-0.11
										c0.31-1.13-2.95-13.81-3.63-15.29c-0.7-1.52-5.38-6.69-6.48-6.34c-1.14,0.36-3.36,6.06-3.33,8.03
										c0.02,2.03-1.37,8.83-4.81,12.86c-1.8,2.1-5.08,2.26-7.01,1.09c-1.17-0.71-1.59-1.8-1.14-2.92
										c1.25-3.11,3.73-15,3.37-16.11c-0.39-1.18-2.79-12.92-1.54-18.67c1.88-8.68,6.86-11.29,7.07-11.4
										c0.11-0.06,0.24-0.01,0.3,0.1c0.06,0.11,0.01,0.24-0.1,0.3c-0.05,0.03-5,2.64-6.84,11.1c-1.21,5.56,1.15,17.31,1.53,18.44
										c0.43,1.3-2.19,13.47-3.37,16.41c-0.5,1.26,0.38,2.03,0.96,2.38c1.74,1.05,4.81,0.9,6.44-1
										c3.32-3.88,4.73-10.65,4.71-12.57c-0.02-1.85,2.11-7.98,3.64-8.46c1.59-0.5,6.4,5.22,7.02,6.57
										c0.54,1.18,4.03,14.24,3.65,15.59l-0.03,0.11c-1.17,4.25-1.97,6.65-2.44,7.33c-0.18,0.25-0.56,0.63-1.1,1.16
										c-1.68,1.66-4.5,4.44-4.47,6.82c0.02,2.61,0.57,5.54,1.72,6.17c0.37,0.2,0.79,0.16,1.29-0.15
										c2.38-1.47,8.44-10.68,9.22-11.94c0.66-1.07,3.57-9.02,3.72-11.44c0.15-2.36,1.55-14.69,1.9-15.56l0.04-0.11
										c0.34-0.83,1.38-3.37,0.95-4.79c-0.46-1.52-2.17-4.42-2.19-4.44c-0.06-0.11-0.03-0.24,0.08-0.3
										c0.1-0.06,0.24-0.03,0.3,0.08c0.07,0.12,1.76,2.98,2.23,4.54c0.48,1.57-0.57,4.12-0.97,5.08l-0.05,0.11
										c-0.32,0.78-1.71,12.9-1.87,15.42c-0.16,2.47-3.11,10.55-3.79,11.65c-0.06,0.1-6.67,10.43-9.36,12.09
										C1034.43,659.05,1034.08,659.16,1033.75,659.16z"/>
								</g>
							</g>
							<g>
								<path class="st10" d="M1041.94,523.61c-2.9-12.28-9.64-27.99-15.14-37.89c-5.5-9.9-11.89-80.52-46.91-110.33
									c-10.5-8.94-31.71-12.4-31.71-12.4c-9.51,12.27-7.92,29.37-2.42,43.89c5.43,14.34,12.32,31.49,17.26,40.13
									c9.4,16.44,31.91,53.5,31.91,53.5s4.47,28.38,7.73,45.65c4.82,25.48,13.52,40.64,13.52,40.64s20.18-10.39,29.35,3.88
									C1045.54,590.69,1049.13,554.09,1041.94,523.61z"/>
							</g>
						</g>
						<g>
							<path class="st6" d="M884.62,634.53c-13.36,0-24.43-3.51-24.61-3.56c-0.23-0.08-0.36-0.32-0.29-0.56
								c0.08-0.23,0.33-0.36,0.56-0.29c0.27,0.09,26.95,8.53,47.29-1.03c0.22-0.1,0.49-0.01,0.59,0.21c0.1,0.22,0.01,0.49-0.21,0.59
								C900.48,633.41,892.19,634.53,884.62,634.53z"/>
						</g>
					</g>
				</g>
			</g>
		</g>
	</g>
	<g>
		<path class="st41" d="M1077.84,688.17H82.16c-1.19,0-2.16-0.97-2.16-2.16c0-1.19,0.97-2.16,2.16-2.16h995.68
			c1.19,0,2.16,0.97,2.16,2.16C1080,687.2,1079.03,688.17,1077.84,688.17z"/>
	</g>
</g>
</svg>
